<?xml version="1.0" encoding="UTF-8"?>
<svg id="Layer_1" data-name="Layer 1" xmlns="http://www.w3.org/2000/svg" viewBox="0 0 781 440">
  <defs>
    <style>
      .cls-1 {
        stroke-dasharray: 0 0 2.97 2.97;
      }

      .cls-1, .cls-2, .cls-3, .cls-4, .cls-5, .cls-6, .cls-7, .cls-8, .cls-9, .cls-10, .cls-11, .cls-12, .cls-13, .cls-14, .cls-15, .cls-16, .cls-17 {
        stroke-miterlimit: 10;
      }

      .cls-1, .cls-2, .cls-3, .cls-4, .cls-5, .cls-6, .cls-7, .cls-8, .cls-11, .cls-12, .cls-13, .cls-14, .cls-15 {
        stroke-width: 2px;
      }

      .cls-1, .cls-2, .cls-11, .cls-12, .cls-13, .cls-14, .cls-15, .cls-16, .cls-17 {
        fill: none;
      }

      .cls-1, .cls-9, .cls-12, .cls-16 {
        stroke: #d60000;
      }

      .cls-2 {
        stroke-dasharray: 0 0 3.02 3.02;
      }

      .cls-2, .cls-11 {
        stroke: #dce3e5;
      }

      .cls-3, .cls-5, .cls-15 {
        stroke: #ffaf10;
      }

      .cls-3, .cls-18 {
        fill: #fcf1e0;
      }

      .cls-4, .cls-5, .cls-6, .cls-19 {
        fill: #fff;
      }

      .cls-4, .cls-8, .cls-13 {
        stroke: #60bcd8;
      }

      .cls-6, .cls-7, .cls-10, .cls-14 {
        stroke: #4c5054;
      }

      .cls-7, .cls-20 {
        fill: #4c5054;
      }

      .cls-8 {
        fill: #d0f1f7;
      }

      .cls-21 {
        font-family: Arial-BoldMT, Arial;
      }

      .cls-21, .cls-22, .cls-23 {
        isolation: isolate;
      }

      .cls-21, .cls-23 {
        font-size: 14px;
        font-weight: 700;
      }

      .cls-21, .cls-24 {
        fill: #d60000;
      }

      .cls-9 {
        fill: #edd6d6;
      }

      .cls-10 {
        fill: #ebf0f2;
      }

      .cls-17 {
        stroke: #cbd0d1;
      }

      .cls-23 {
        font-family: Courier-Bold, Courier;
      }

      .cls-23, .cls-25 {
        fill: #333332;
      }

      .cls-20, .cls-26, .cls-24, .cls-25, .cls-27, .cls-19, .cls-18 {
        stroke-width: 0px;
      }

      .cls-26 {
        fill: #cbd0d1;
      }

      .cls-27 {
        fill: #ffaf10;
      }
    </style>
  </defs>
  <rect class="cls-15" x="330.09" y="202.19" width="90.36" height="93.16"/>
  <line class="cls-15" x1="344.21" y1="221.34" x2="356.68" y2="221.34"/>
  <line class="cls-15" x1="365.39" y1="221.34" x2="405.67" y2="221.34"/>
  <line class="cls-15" x1="344.21" y1="231.23" x2="356.68" y2="231.23"/>
  <line class="cls-15" x1="365.39" y1="231.23" x2="405.67" y2="231.23"/>
  <line class="cls-15" x1="344.21" y1="241.12" x2="356.68" y2="241.12"/>
  <line class="cls-15" x1="365.39" y1="241.12" x2="405.67" y2="241.12"/>
  <line class="cls-15" x1="344.21" y1="251.01" x2="356.68" y2="251.01"/>
  <line class="cls-15" x1="365.39" y1="251.01" x2="405.67" y2="251.01"/>
  <line class="cls-13" x1="621.92" y1="225.2" x2="638.04" y2="225.2"/>
  <line class="cls-15" x1="646.74" y1="225.2" x2="659.84" y2="225.2"/>
  <line class="cls-13" x1="621.92" y1="235.09" x2="638.04" y2="235.09"/>
  <line class="cls-15" x1="646.74" y1="235.09" x2="659.84" y2="235.09"/>
  <line class="cls-13" x1="621.92" y1="244.98" x2="638.04" y2="244.98"/>
  <line class="cls-15" x1="646.74" y1="244.98" x2="659.84" y2="244.98"/>
  <line class="cls-13" x1="621.92" y1="254.87" x2="638.04" y2="254.87"/>
  <line class="cls-13" x1="646.74" y1="254.87" x2="659.84" y2="254.87"/>
  <line class="cls-15" x1="669.24" y1="225.2" x2="695.51" y2="225.2"/>
  <line class="cls-13" x1="704.22" y1="225.2" x2="717.32" y2="225.2"/>
  <line class="cls-15" x1="669.24" y1="235.09" x2="695.51" y2="235.09"/>
  <line class="cls-13" x1="704.22" y1="235.09" x2="717.32" y2="235.09"/>
  <line class="cls-15" x1="669.24" y1="244.98" x2="695.51" y2="244.98"/>
  <line class="cls-13" x1="704.22" y1="244.98" x2="717.32" y2="244.98"/>
  <line class="cls-13" x1="669.24" y1="254.87" x2="695.51" y2="254.87"/>
  <line class="cls-13" x1="704.22" y1="254.87" x2="717.32" y2="254.87"/>
  <line class="cls-13" x1="621.92" y1="185.24" x2="638.04" y2="185.24"/>
  <line class="cls-13" x1="646.74" y1="185.24" x2="659.84" y2="185.24"/>
  <line class="cls-13" x1="621.92" y1="195.13" x2="638.04" y2="195.13"/>
  <line class="cls-13" x1="646.74" y1="195.13" x2="659.84" y2="195.13"/>
  <line class="cls-13" x1="621.92" y1="205.02" x2="638.04" y2="205.02"/>
  <line class="cls-13" x1="646.74" y1="205.02" x2="659.84" y2="205.02"/>
  <line class="cls-13" x1="621.92" y1="214.91" x2="638.04" y2="214.91"/>
  <line class="cls-15" x1="646.74" y1="214.91" x2="659.84" y2="214.91"/>
  <line class="cls-13" x1="669.24" y1="185.24" x2="695.51" y2="185.24"/>
  <line class="cls-13" x1="704.22" y1="185.24" x2="717.32" y2="185.24"/>
  <line class="cls-13" x1="669.24" y1="195.13" x2="695.51" y2="195.13"/>
  <line class="cls-13" x1="704.22" y1="195.13" x2="717.32" y2="195.13"/>
  <line class="cls-13" x1="669.24" y1="205.02" x2="695.51" y2="205.02"/>
  <line class="cls-13" x1="704.22" y1="205.02" x2="717.32" y2="205.02"/>
  <line class="cls-15" x1="669.24" y1="214.91" x2="695.51" y2="214.91"/>
  <line class="cls-13" x1="704.22" y1="214.91" x2="717.32" y2="214.91"/>
  <line class="cls-13" x1="621.92" y1="264.77" x2="638.04" y2="264.77"/>
  <line class="cls-13" x1="646.74" y1="264.77" x2="659.84" y2="264.77"/>
  <line class="cls-13" x1="621.92" y1="274.66" x2="638.04" y2="274.66"/>
  <line class="cls-13" x1="646.74" y1="274.66" x2="659.84" y2="274.66"/>
  <line class="cls-13" x1="621.92" y1="284.55" x2="638.04" y2="284.55"/>
  <line class="cls-13" x1="646.74" y1="284.55" x2="659.84" y2="284.55"/>
  <line class="cls-13" x1="669.24" y1="264.77" x2="695.51" y2="264.77"/>
  <line class="cls-13" x1="704.22" y1="264.77" x2="717.32" y2="264.77"/>
  <line class="cls-13" x1="669.24" y1="274.66" x2="695.51" y2="274.66"/>
  <line class="cls-13" x1="704.22" y1="274.66" x2="717.32" y2="274.66"/>
  <line class="cls-13" x1="669.24" y1="284.55" x2="695.51" y2="284.55"/>
  <line class="cls-13" x1="704.22" y1="284.55" x2="717.32" y2="284.55"/>
  <path class="cls-8" d="m628,262.8c0,9.34-.16,4.29-.29,10.55-.16,7.29-20.83,13.21-46.52,13.21s-46.52-5.92-46.52-13.21c0-3.19.29-7.85.29-10.55"/>
  <ellipse class="cls-4" cx="581.45" cy="262.8" rx="46.52" ry="13.22"/>
  <path class="cls-8" d="m628,241.6c0,9.34-.16,4.29-.29,10.55-.16,7.29-20.83,13.21-46.52,13.21s-46.52-5.92-46.52-13.21c0-3.19.29-7.85.29-10.55"/>
  <ellipse class="cls-4" cx="581.45" cy="241.6" rx="46.52" ry="13.22"/>
  <path class="cls-8" d="m628,219.74c0,9.34-.16,4.28-.29,10.54-.16,7.3-20.83,13.22-46.52,13.22s-46.52-5.92-46.52-13.22c0-3.18.29-7.85.29-10.54"/>
  <ellipse class="cls-4" cx="581.45" cy="219.74" rx="46.52" ry="13.22"/>
  <path class="cls-8" d="m628,196.84c0,9.34-.16,4.28-.29,10.54-.16,7.3-20.83,13.22-46.52,13.22s-46.52-5.92-46.52-13.22c0-3.18.29-7.85.29-10.54"/>
  <ellipse class="cls-4" cx="581.45" cy="196.84" rx="46.52" ry="13.22"/>
  <path class="cls-14" d="m94.13,146.34c-3.69-.58-2.75,3.59-3.06,10.83-.27,3.22,1.19,6.33,3.83,8.19"/>
  <path class="cls-14" d="m106.57,150.42c-5.5,3.25-5.92,8.44-5.17,14.56.21,1.69-5.33-1-9,1.35-4.25,15.4,9.17,18.59,9.17,20.59v10.61c0,4.62,15.25,15.64,28.25,15.64s26.75-13,26.75-15.64-.25-6.86,0-10.86c9.75-4.5,11-19.75,8.25-20.34-2.53-.63-5.14-.91-7.75-.84,0-7.42-1.75-14.79-9.75-14.79h-34.5c-11.64,0-17.24-2.48-19.8-5.45-1.3-1.47-2.01-3.37-2-5.33,0-4.5,4.75-6.1-2.42-10.86,4-1.16,13,.47,14.92,5,1.87-3.53,7.47-14.15,1.75-20,5.25,1.75,14.42,10.58,12.83,20.75,5.58-4.75,9.57-19.63,8.08-23.71,6.64,5.21,10.1,16.71,8.43,25.83,4.75-.16,12.41-8.62,10.11-19.62,6,6.75,10.09,14,8.28,22.31,5.27,1.44,8.41-4.56,9.27-9.56,8.84,21.12-.27,35.72-.27,35.72"/>
  <path class="cls-14" d="m112.57,208.1c.45,4.34.45,8.73,0,13.07-.75,7.25-10.75,8-25,11-8.58,1.16-26.25,36.75-26.25,50.56,0,6.5,18.71,40.33,18.71,40.33"/>
  <path class="cls-14" d="m145.1,208.1c-.45,4.34-.45,8.73,0,13.07.75,7.25,10.75,8,25,11,16.89,6.54,24.21,43.32,27.56,55.15-1.83,10-19.2,35.74-19.2,35.74"/>
  <path class="cls-7" d="m128.58,228.92h1.17c7.5-.16,11.72-1.91,16-5.36,2.33,2.6,6.85,6.12,8.94,5.37s-11.14,9.75-26.15,8.75-21-5.19-23.26-9.47c2.89-1.23,5.89-2.27,6.57-4.65,4.27,4.61,11.22,5.69,16.73,5.36Z"/>
  <polygon class="cls-20" points="166.42 258.38 94.75 258.38 94.57 247.87 166.42 246.83 166.42 258.38"/>
  <polygon class="cls-20" points="169.32 271.43 91.27 271.43 91.06 267.86 168.19 267.86 169.32 271.43"/>
  <path class="cls-7" d="m100.69,164.44c4.91-2.16,18.86,0,27.85,5.29,5.57-5.75,22.86-7.92,28.8-5.55.03.67.37,1.28.92,1.66-3.55,1.39-9.55,10-14.82,11.31-2.36.58-13.66-2.05-16-1.56-4.35.98-8.79,1.47-13.25,1.46-6.48.19-13.48-10.73-13.48-10.73l-.02-1.88Z"/>
  <polyline class="cls-14" points="183.14 315.78 191.59 315.78 178.44 343.53 80.64 343.53 65.58 315.78 74.96 315.78"/>
  <polygon class="cls-6" points="72.02 271.23 186.47 271.23 175.29 343.53 83.19 343.53 72.02 271.23"/>
  <polyline class="cls-14" points="65.58 315.78 80.64 347.76 178.44 347.76 191.59 315.78"/>
  <path class="cls-7" d="m127.4,192c-1.83.17-6.83,2.1-9.25,1.27"/>
  <path class="cls-7" d="m129.49,192c1.83,0,6.25,2.23,9.25,1.48"/>
  <line class="cls-14" x1="124.02" y1="199" x2="133.14" y2="199"/>
  <path class="cls-20" d="m77.3,244.15c2.85,5.6,15.23,14.06,17.45,14.23s2.9-9.74,2.9-9.74c-7.43-3.78-12.83-8.14-14.65-13.14l-5.7,8.65Z"/>
  <path class="cls-20" d="m71.27,252.63c4.63,5.92,24.13,16.79,26.38,16.2-.5,1.59-2.91,2.6-3.75,2.6.34.36-17.25-.93-17.25-.93,0,0-11-5.4-10-7.84,1.16-2.81,5.03-10.08,4.62-10.03Z"/>
  <path class="cls-20" d="m62.36,275.49c1.42,1.17,9.58,4.32,10.94,4-.06.8,1.1,9.64,1.1,9.64,0,0-11.23.48-12.82-1.85.24-2.78.78-11.79.78-11.79Z"/>
  <path class="cls-20" d="m67.86,299.64c5.4.09,8.33-1.41,8.19-2.29s1.17,7.56,1.17,7.56c0,0,3.6,4.2-4.32,4.78-2.74-2.54-5.04-10.05-5.04-10.05Z"/>
  <path class="cls-20" d="m181.94,244.15c-2.86,5.6-13.3,14.06-15.52,14.23s-5.84-8.83-5.84-8.83c7.5-2.17,13.84-9.05,15.63-14.05l5.73,8.65Z"/>
  <path class="cls-20" d="m187.22,253.83c-4.64,5.92-19.64,15.17-21.89,14.59.51,1.58-.83,3,0,3-.33.36,17.25-.93,17.25-.93,0,0,9.25-4.45,8.25-6.88-1.15-2.81-4.03-9.83-3.61-9.78Z"/>
  <path class="cls-20" d="m194.67,276.25c-1.42,1.17-7.38,3.56-8.73,3.28.06.8-1.11,9.64-1.11,9.64,0,0,11.24.48,12.83-1.85-.24-2.82-2.99-11.07-2.99-11.07Z"/>
  <path class="cls-20" d="m192.89,299.08c-5.39.1-9.84-.85-9.71-1.73s-1.17,7.56-1.17,7.56c0,0-2.56,3.45,5.36,4,2.74-2.51,5.52-9.83,5.52-9.83Z"/>
  <polyline class="cls-17" points="298.82 278.19 278.54 278.19 278.54 192.72 267.34 192.72 267.34 136.24 254.52 136.24 254.52 97.58 242.72 97.58 242.72 109.33 272.57 109.33 272.57 44.91"/>
  <polyline class="cls-17" points="185.94 279.53 220.32 279.53 220.32 165.36 207.32 165.36 207.32 179.57 227.98 179.57 227.98 117.91 173.65 117.91 173.65 92.91 193.96 92.91 193.96 79.83 54.19 79.83 54.19 53.02"/>
  <polyline class="cls-17" points="581.15 192.8 581.15 145.99 572.32 145.99 572.32 160.11 598.65 160.11 598.65 111.11"/>
  <polyline class="cls-17" points="448.65 277.99 465.91 277.99 465.91 210.05 494.35 210.05 494.35 181.32 478.35 181.32 478.82 148.76 496.32 148.76 496.32 119.58"/>
  <polyline class="cls-16" points="736.9 230.64 755.51 230.64 755.51 362.09 506.33 363.76 464.01 364.05 464.01 309.69 453.35 309.69"/>
  <rect class="cls-18" x="344.21" y="267.16" width="63.05" height="19.82"/>
  <polygon class="cls-26" points="214.32 249.03 220.32 240.22 226.32 249.22 214.32 249.03"/>
  <polygon class="cls-26" points="294.51 271.99 303.32 277.99 294.32 283.99 294.51 271.99"/>
  <polygon class="cls-26" points="284.57 203.79 278.57 212.6 272.57 203.6 284.57 203.79"/>
  <polygon class="cls-26" points="459.91 247.81 465.91 239 471.91 248 459.91 247.81"/>
  <polygon class="cls-26" points="587.3 188.49 581.3 197.3 575.3 188.3 587.3 188.49"/>
  <polygon class="cls-24" points="761.32 318.02 755.32 326.83 749.32 317.83 761.32 318.02"/>
  <line class="cls-13" x1="621.92" y1="294.49" x2="638.04" y2="294.49"/>
  <line class="cls-13" x1="646.74" y1="294.49" x2="659.84" y2="294.49"/>
  <line class="cls-13" x1="621.92" y1="304.38" x2="638.04" y2="304.38"/>
  <line class="cls-13" x1="646.74" y1="304.38" x2="659.84" y2="304.38"/>
  <line class="cls-13" x1="669.24" y1="294.49" x2="695.51" y2="294.49"/>
  <line class="cls-13" x1="704.22" y1="294.49" x2="717.32" y2="294.49"/>
  <line class="cls-13" x1="669.24" y1="304.38" x2="695.51" y2="304.38"/>
  <line class="cls-13" x1="704.22" y1="304.38" x2="717.32" y2="304.38"/>
  <line class="cls-12" x1="723.77" y1="225.2" x2="736.87" y2="225.2"/>
  <line class="cls-12" x1="723.77" y1="235.09" x2="736.87" y2="235.09"/>
  <line class="cls-12" x1="723.77" y1="244.98" x2="736.87" y2="244.98"/>
  <line class="cls-12" x1="723.77" y1="254.87" x2="736.87" y2="254.87"/>
  <line class="cls-12" x1="723.77" y1="195.13" x2="736.87" y2="195.13"/>
  <line class="cls-12" x1="723.77" y1="205.02" x2="736.87" y2="205.02"/>
  <line class="cls-12" x1="723.77" y1="214.91" x2="736.87" y2="214.91"/>
  <line class="cls-12" x1="723.77" y1="264.77" x2="736.87" y2="264.77"/>
  <line class="cls-12" x1="723.77" y1="274.66" x2="736.87" y2="274.66"/>
  <line class="cls-12" x1="723.77" y1="284.55" x2="736.87" y2="284.55"/>
  <line class="cls-12" x1="723.77" y1="294.49" x2="736.87" y2="294.49"/>
  <polyline class="cls-12" points="723.77 185.24 736.87 185.24 736.87 304.38 723.77 304.38"/>
  <polygon class="cls-24" points="457.47 314.94 448.65 308.94 457.65 302.94 457.47 314.94"/>
  <polygon class="cls-24" points="292.82 322.52 286.82 331.33 280.82 322.33 292.82 322.52"/>
  <polygon class="cls-24" points="133.79 406.91 124.98 400.91 133.98 394.91 133.79 406.91"/>
  <polygon class="cls-24" points="40.95 358.11 46.95 349.3 52.95 358.3 40.95 358.11"/>
  <rect class="cls-3" x="304.51" y="163.35" width="143.11" height="22.57"/>
  <line class="cls-15" x1="380.3" y1="174.55" x2="391.2" y2="174.55"/>
  <line class="cls-15" x1="396.36" y1="174.55" x2="407.26" y2="174.55"/>
  <line class="cls-15" x1="412.31" y1="174.55" x2="423.2" y2="174.55"/>
  <line class="cls-15" x1="428.37" y1="174.55" x2="439.26" y2="174.55"/>
  <ellipse class="cls-5" cx="325.61" cy="174.64" rx="13.4" ry="5.26"/>
  <path class="cls-27" d="m360,278.42c0,.34-.05.68-.18,1-.13.29-.31.54-.55.75-.26.22-.56.38-.89.48-.39.12-.79.17-1.2.17-.39,0-.77-.04-1.15-.12-.35-.08-.68-.21-1-.37v-1.63l.54.25.56.22.56.15c.19.04.38.05.57.05.17,0,.33-.02.49-.06.12-.03.24-.09.33-.18.08-.08.15-.17.19-.27.04-.12.06-.24.05-.36,0-.14-.03-.28-.09-.4-.07-.13-.17-.24-.28-.33-.13-.12-.27-.22-.43-.3l-.55-.31c-.17-.09-.37-.2-.58-.33-.22-.13-.42-.29-.6-.47-.2-.2-.36-.43-.48-.68-.14-.32-.2-.66-.19-1,0-.34.05-.68.18-1,.12-.28.3-.53.52-.74.24-.21.52-.36.82-.45.35-.11.71-.17,1.07-.16.2-.01.39-.01.59,0,.18,0,.37.06.56.11s.37.11.55.18c.2.07.39.16.58.25l-.56,1.35-.47-.21-.43-.15-.4-.09c-.14,0-.27,0-.41,0-.25-.02-.49.06-.67.23-.16.17-.24.39-.23.62,0,.13.02.25.07.37.06.11.13.22.23.3.12.11.25.2.39.28.17.1.36.21.6.33s.53.31.77.46c.22.15.43.32.61.52.17.19.3.4.39.64.1.29.14.59.12.9Z"/>
  <path class="cls-27" d="m367.74,272.5v5.3c0,.4-.06.81-.19,1.19-.25.74-.84,1.33-1.58,1.59-.45.16-.92.24-1.39.23-.46.01-.91-.06-1.34-.22-.38-.12-.72-.33-1-.61-.27-.28-.47-.63-.59-1-.14-.4-.22-.82-.21-1.24v-5.24h1.74v5.15c0,.26.03.53.09.78.05.19.14.37.26.53.12.13.27.23.44.3.2.06.41.09.62.09.4.04.79-.12,1.06-.42.25-.38.36-.84.33-1.29v-5.14h1.76Z"/>
  <path class="cls-27" d="m369.75,272.5h2.4c.46,0,.91.03,1.36.11.35.05.69.17,1,.35.25.16.45.38.59.64.14.31.21.66.2,1,0,.22-.03.44-.09.65-.05.19-.13.37-.24.54-.11.15-.24.28-.4.38-.16.1-.34.17-.53.21h0c.2.05.39.11.57.19.37.18.65.51.78.91.08.27.12.54.11.82,0,.34-.06.68-.19,1-.13.29-.32.54-.56.75-.27.21-.57.37-.9.47-.38.11-.78.16-1.18.16h-2.9l-.02-8.18Zm1.74,3.25h.9c.19,0,.37-.02.55-.06.13-.03.25-.09.35-.18.09-.08.16-.18.19-.29.05-.13.07-.28.06-.42.03-.26-.08-.51-.29-.67-.28-.16-.61-.23-.93-.21h-.83v1.83Zm0,1.38v2.13h1c.2,0,.39-.02.58-.08.28-.08.49-.29.58-.57.04-.15.06-.3.06-.46,0-.14-.02-.28-.06-.42-.04-.12-.11-.24-.21-.32-.11-.1-.25-.17-.39-.21-.2-.05-.4-.08-.6-.07h-.96Z"/>
  <path class="cls-27" d="m380.43,280.7l-1.8-6.44h-.05c0,.35,0,.68.05,1v5.44h-1.55v-8.2h2.37l1.77,6.27h0l1.89-6.27h2.36v8.2h-1.62v-6.44h0l-2,6.42-1.42.02Z"/>
  <path class="cls-27" d="m390.68,280.7h-3.68v-1l1-.46v-5.31l-1-.46v-1h3.73v1l-1,.46v5.31l1,.46-.05,1Z"/>
  <path class="cls-27" d="m395.08,280.7h-1.74v-6.76h-2.06v-1.44h5.85v1.44h-2.05v6.76Z"/>
  <polyline class="cls-16" points="80.82 334.08 46.95 334.08 46.95 379.59 71.72 379.59 71.72 401.74"/>
  <polyline class="cls-16" points="304.01 309.69 286.82 309.69 286.82 349.3 210.65 349.3 210.65 400.91 71.72 401.74"/>
  <path class="cls-20" d="m142.4,312.15l.35-.07h0c.35-.06.69-.1,1-.14h.18l.37-.05h0l.33-.06h0c.27-.05.54-.14.79-.25.4-.19.71-.52.87-.93.32-.63.08-1.41-.54-1.75,0-.21-.01-.42-.06-.62-.09-.62-.52-1.13-1.12-1.31-.13-.03-.27-.05-.41-.05-.6.02-1.16.33-1.5.83-.4.47-.89.86-1.44,1.14l-.74.35h0l-.52.24c-.48.22-1,.45-1.52.68.28-4.33,2.21-8,.17-10.8s-5.8-3.51-9.39-3.58h-.86c-1.81,0-3.6.31-5.31.89l-.19.07c-1.35.49-2.55,1.35-3.44,2.48-1.68,2.22-.41,4.93.29,8.05l.08.36c.17.78.27,1.57.3,2.36.01.17.01.35,0,.52v.05c-.01.83.19,1.64.57,2.37-1.54-.71-3.14-1.3-4.77-1.76-1.93-.5-3.56-.19-3.66-1.83.06-.35.33-.64.68-.72.09.26.27.49.5.65-.59-.55-.62-1.47-.07-2.06.13-.14.28-.25.45-.33,1.25-.24,1.18,1,2.93,2,1,.52,2.11,1.09,3.37,1.68h0c0-.17,0-.34,0-.51-1.17-.55-2.24-1.09-3.12-1.57-.19-.1-.37-.21-.54-.34l-.15-.12c-.25-.22-.49-.46-.7-.72-.32-.51-.87-.85-1.47-.9-.14-.01-.28-.01-.42,0-.6.16-1.05.65-1.17,1.26-.05.2-.08.41-.08.62-.41.22-.68.63-.72,1.1,0,.68.39,1.29,1,1.59.55.24,1.13.4,1.73.45.44.07.89.14,1.37.26,1.83.53,3.62,1.2,5.36,2h0c.51.66,1.1,1.26,1.75,1.78l.08.06.31.26.18.18-.12.05-.83.29h-.11c-1.63.58-3.3,1.05-5,1.4-.89.15-1.79.26-2.69.31-.73,0-1.45.11-2.14.34-.66.28-1.09.92-1.08,1.64-.03.51.13,1.02.46,1.41.2.23.45.4.74.49-.04.24-.04.49,0,.73.08.54.44,1,.94,1.21.28.12.58.18.88.19.2.01.4-.02.59-.09l.36-.16c.36-.24.7-.52,1-.84.68-.71,1.46-1.32,2.32-1.81,1.33-.73,2.72-1.35,4.15-1.87l1-.39.44-.15h0l.36-.13h.09s.47.45.63.56c1.05.67,2.29.99,3.53.92,2.12,0,3.25-.52,4-1.26h0c1.18.48,2.36,1,3.45,1.49.49.23,1.77.92,1.77.92l.57.34c.83.53,1.59,1.17,2.25,1.9.61.65,1.1,1.16,1.91,1.17.3,0,.6-.05.88-.16.37-.13.67-.39.84-.74.1-.2.17-.42.2-.65.01-.17.01-.34,0-.51h0c.27-.08.52-.23.71-.44.35-.38.53-.88.52-1.39.03-.71-.36-1.37-1-1.68-.68-.25-1.39-.4-2.11-.43h-.47l-.75-.09h-.28c-.37-.06-.76-.13-1.18-.23-1.11-.27-2.19-.6-3.26-1l-.77-.28-1.79-.69h0c.05-.08.11-.15.18-.21.23-.19.47-.37.72-.53.36-.25,1.34-1.05,1.34-1.05.22-.21.43-.44.61-.68h0l1-.38h.11c.59-.22,1.17-.42,1.71-.6h.08c.89-.42,1.55-.6,2.14-.73Zm-18,6.11h0l-.6.22-.52.2-.44.16h0c-1.18.46-2.32.93-3.32,1.43l-.16.08-.67.36c-2.87,1.65-3,3.39-4.71,2.69-1-.39-.77-2-.14-2.58-.24.17-.42.41-.52.69-.71-.05-1.25-.67-1.2-1.38,0-.02,0-.04,0-.06.15-1.89,2-1.24,5.21-1.78h.28c2.13-.46,4.23-1.08,6.27-1.86h.08v.09c.3.47.45,1.07.78,1.66h0l-.35.08Zm4.72,1.05l.08-.11s-.07.08-.11.11h.03Zm7.2-1.93l.55.2h0l.21.07h.11l.44.16c.9.32,1.82.59,2.75.81.56.13,1.08.21,1.56.28l.44.06,1,.1h.07c1.5.17,2.33.33,2.39,1.59.05.72-.49,1.34-1.21,1.39-.01,0-.03,0-.04,0-.09-.28-.26-.53-.5-.7.46.54.6,1.27.37,1.94h0c-.11.27-.33.48-.6.58-1.78.63-1.8-1.1-4.6-2.86l-.65-.39c-.46-.26-1.94-1-1.94-1-1-.47-2.07-.92-3.13-1.35.35-.55.66-1.12.91-1.72l1.87.84Zm.2-3.18h0Zm1.48-3.81v.99c.01.67-.17,1.33-.54,1.89-.26.4-.6.74-1,1-.91.56-1.94.75-2.32,1.11-.13.14-.25.31-.34.48-.08.15-.15.31-.21.47-.12.34-.29.66-.51.94.04.31.02.63-.05.93-.07.15-.2.27-.36.33h-.23c-.09-.18-.12-.39-.1-.59v-.08h-.06c.01.18.01.37,0,.55.06.43-.56.8-.6-.24v-.14h-.11v.08c0,.51.15,1-.35,1.09s-.41-.37-.36-1.05h-.3c0,.56.28,1.23-.49,1.22-.11,0-.21-.01-.31-.05-.27-.11-.25-.55-.25-.55,0-.17,0-.37.05-.59h-.31c0,.49.21,1-.29,1.15h-.2c-.72,0-.57-.47-.51-1.22h-.22c0,.53.08,1.12-.36,1s-.4-.45-.36-1.13h-.1c0,.44,0,.83-.3.76s-.32-.3-.3-.73c0-.07,0-.13,0-.2h-.06c0,.08,0,.16,0,.24,0,.68-.39.3-.56.2-.16-.1-.26-.26-.27-.45v-.22c0-.09,0-.18,0-.27-.18-.19-.34-.4-.46-.63h0c-.11-.21-.2-.43-.31-.64-.08-.15-.17-.3-.28-.44l-.07-.09c-.32-.36-1.23-.68-2.07-1.28-.39-.27-.73-.61-1-1-.43-.63-.64-1.39-.61-2.15,0-.08,0-.15,0-.23v-.91c.12-.78.32-1.55.61-2.28h0c0-.09.08-.19.12-.29l.07-.15h0c1.07-2.24,1.25-4,.86-5.06l-.28-.34c-.16.37-.45,1.86-1,3.73v.19c-.13.49-.27,1-.43,1.51,0,.04,0,.07,0,.11l-.14.54-.06.28c0-.11,0-.22-.08-.33l-.14-.6c-.66-2.66-1.53-5-.09-6.94.56-.73,1.24-1.37,2-1.89,0,0,1.07-.68,1.34-.81,3.29-1.7,7.17-1.83,10.57-.35.08,0,.16.03.21.1,1.54.67,2.88,1.73,3.88,3.07.17.25.32.51.44.79l.11.26c.69,1.91.06,4.16-.39,6.71,0-.2-.08-.4-.14-.6-.52-2-.84-3.8-1-4.79l-.07-.33c-.08-.34-.14-.5-.19-.43-.07.11-.13.23-.19.35-.09.26-.17.54-.22.81-.1,1.49.2,2.99.86,4.33.37.86.6,1.78.7,2.71-.08.06-.18.11-.27.15h0Zm.85,2.33l-.18.06-.67.22c.33-.68.51-1.42.51-2.18v-.13h0l1.28-.56.66-.3,1.09-.52c1.79-.89,1.77-2.16,3-1.87.72.37.99,1.25.62,1.97-.09.16-.2.31-.34.43.24-.15.42-.37.53-.63.34.1.59.39.65.74-.09.94-.66,1.22-1.49,1.37l-.61.08c-.37,0-.77.09-1.19.16h0l-.43.08c-1.18.28-2.33.64-3.46,1.08h.03Z"/>
  <path class="cls-20" d="m130.75,314.58l-.13-.7c-.23-1.21-1-2.25-1.37-2.26s-1,.78-1.34,1.76c0,.14-.08.29-.11.45v.05c-.15.68-.24,1.37-.27,2.06,0,.46.16.41.38.17l.2-.24.09-.11h0v-.06h0l.09-.12c.3-.39.62-.78.87-.77s.42.24.66.52l.2.26c.56.74,1,1.49.79-.42,0-.17-.03-.37-.06-.59Z"/>
  <path class="cls-20" d="m128.34,308.09c-.16-.92-1.14-.93-3.91-1.43-.15-.02-.29-.02-.44,0h-.08l-.21.05-.25.1c-1,.64-1.59,1.76-1.54,2.95h0c.01.2.03.39.06.59h0c.02.15.05.29.1.43v.07c.08.25.22.48.39.67.19.22.43.39.7.51.48.16.99.25,1.5.26.18,0,.37-.02.55-.05h.12c.25-.04.5-.1.74-.18,1.68-.53,2.66-2.26,2.27-3.97Z"/>
  <path class="cls-20" d="m136.51,308.75h0c0-.14-.09-.28-.14-.41h0l-.07-.17c-.07-.14-.15-.27-.23-.4h0c-.36-.63-1.06-.99-1.78-.93l-.88.12h-.05c-2.07.28-2.85.35-3,1.16-.49,1.7.41,3.49,2.07,4.1.75.28,1.56.37,2.35.25.24-.05.48-.12.71-.22l.1-.05h.05c.07-.03.13-.07.19-.12.09-.07.18-.15.26-.24l.06-.06c.14-.17.25-.36.32-.56.27-.72.32-1.5.13-2.25l-.09-.22Z"/>
  <ellipse class="cls-19" cx="115.36" cy="171.01" rx="4.19" ry="2.28"/>
  <ellipse class="cls-19" cx="141.8" cy="171.01" rx="4.19" ry="2.28"/>
  <line class="cls-11" x1="342.32" y1="277.99" x2="340.82" y2="277.99"/>
  <line class="cls-2" x1="337.8" y1="277.99" x2="309.14" y2="277.99"/>
  <line class="cls-11" x1="307.63" y1="277.99" x2="306.13" y2="277.99"/>
  <line class="cls-11" x1="445.15" y1="278.19" x2="443.65" y2="278.19"/>
  <line class="cls-2" x1="440.63" y1="278.19" x2="411.97" y2="278.19"/>
  <line class="cls-11" x1="410.46" y1="278.19" x2="408.96" y2="278.19"/>
  <line class="cls-12" x1="446.46" y1="309.69" x2="444.96" y2="309.69"/>
  <line class="cls-1" x1="441.99" y1="309.69" x2="306.99" y2="309.69"/>
  <line class="cls-12" x1="305.51" y1="309.69" x2="304.01" y2="309.69"/>
  <rect class="cls-15" x="304.51" y="185.92" width="143.11" height="131.78"/>
  <polygon class="cls-26" points="490.24 120.72 496.24 111.91 502.24 120.91 490.24 120.72"/>
  <path class="cls-20" d="m157.06,165.49c0-7.42-1.75-14.79-9.75-14.79h-34.5c-11.64,0-17.24-2.48-19.8-5.45-1.3-1.47-2.02-3.37-2-5.33,0-4.5,4.74-6.1-2.42-10.86,4-1.16,13,.47,14.91,5,1.88-3.53,7.48-14.15,1.75-20,5.25,1.75,14.42,10.58,12.84,20.75,5.58-4.75,9.56-19.63,8.08-23.71,6.63,5.21,10.09,16.71,8.42,25.83,4.75-.16,12.41-8.62,10.12-19.62,6,6.75,10.08,14,8.28,22.31,5.26,1.44,8.4-4.56,9.26-9.56,8.85,21.12-.26,35.72-.26,35.72l-4.93-.29Z"/>
  <path class="cls-20" d="m92.4,166.33c3.67-2.35,9.21.34,9-1.35-.75-6.12-.33-11.31,5.17-14.56l-12.44-4.08c-3.69-.58-2.75,3.59-3.06,10.83-.27,3.22,1.19,6.33,3.83,8.19"/>
  <polygon class="cls-26" points="48.19 57.33 54.19 48.52 60.19 57.52 48.19 57.33"/>
  <rect class="cls-10" x="17.97" y="18.35" width="503.74" height="30"/>
  <rect class="cls-10" x="357.32" y="67.51" width="363.86" height="42.66"/>
  <text class="cls-23" transform="translate(21.97 35.92)"><tspan x="0" y="0">{&quot;username&quot;: &quot;admin&quot;, &quot;password&quot;: {&quot;$ne&quot;:&quot;wrong-password&quot;}}</tspan></text>
  <g class="cls-22">
    <g class="cls-22">
      <path class="cls-25" d="m372.62,81.66h.12c.24,0,.43.06.55.19s.18.31.18.55c0,.27-.06.46-.19.58-.13.12-.35.18-.65.18h-1.04c-.13,0-.23-.03-.3-.08s-.1-.12-.1-.22v-.48c-.22.31-.51.54-.85.7s-.74.24-1.17.24c-.89,0-1.63-.3-2.22-.91s-.89-1.37-.89-2.28.3-1.73.9-2.36,1.37-.94,2.3-.94c.32,0,.63.05.94.16.3.11.58.26.84.45v-1.73h-.9c-.31,0-.53-.06-.66-.18s-.2-.31-.2-.58.07-.46.2-.58.35-.18.66-.18h2.11c.15,0,.26.03.31.1.06.06.08.18.08.36v7Zm-3.18-3.36c-.44,0-.81.17-1.1.5-.29.33-.44.76-.44,1.27s.14.96.43,1.3.66.5,1.1.5.82-.17,1.11-.51c.29-.34.44-.77.44-1.29s-.15-.93-.44-1.27c-.29-.34-.66-.51-1.1-.51Z"/>
      <path class="cls-25" d="m376.84,77.46c.22-.19.47-.34.77-.45.3-.11.61-.16.94-.16.94,0,1.71.31,2.31.94s.9,1.43.9,2.41c0,.89-.3,1.64-.91,2.24-.61.6-1.38.9-2.3.9-.44,0-.82-.08-1.14-.23s-.59-.38-.79-.69v.45c0,.09-.04.16-.1.22-.07.05-.17.08-.29.08h-1.04c-.31,0-.53-.06-.65-.17-.13-.12-.19-.31-.19-.58,0-.24.06-.42.19-.55.12-.13.31-.19.55-.19h.11v-5.93h-.11c-.24,0-.43-.06-.56-.19s-.19-.32-.19-.56c0-.27.07-.46.2-.58s.35-.18.66-.18h1.27c.14,0,.25.04.31.11s.1.19.1.35v2.8Zm1.5.84c-.44,0-.81.17-1.1.5-.29.33-.44.76-.44,1.27s.14.96.43,1.3.66.5,1.1.5.82-.17,1.11-.51c.29-.34.44-.77.44-1.29s-.15-.93-.44-1.27-.66-.51-1.1-.51Z"/>
      <path class="cls-25" d="m386.38,80.69c.42,0,.77.12,1.03.36s.39.55.39.93-.13.69-.39.93-.6.36-1.03.36-.75-.12-1.02-.36c-.26-.24-.39-.55-.39-.93s.13-.69.39-.93c.26-.24.6-.36,1.02-.36Z"/>
      <path class="cls-25" d="m396.72,77.21c.05-.18.14-.31.25-.4s.26-.13.44-.13c.24,0,.42.07.52.22.1.15.16.4.16.77v1.12c0,.28-.06.48-.17.62-.11.13-.29.2-.52.2-.17,0-.31-.04-.42-.12-.11-.08-.23-.23-.36-.44-.18-.31-.42-.54-.71-.69-.29-.15-.65-.22-1.08-.22-.53,0-.96.17-1.3.52-.34.35-.5.79-.5,1.34,0,.57.17,1.03.52,1.37s.82.52,1.4.52c.53,0,1.06-.15,1.59-.45.53-.3.85-.45.96-.45.17,0,.31.06.42.19s.17.29.17.49c0,.43-.32.81-.97,1.15-.64.34-1.41.51-2.29.51-1.09,0-1.98-.31-2.67-.93-.68-.62-1.03-1.42-1.03-2.39s.34-1.75,1.02-2.38,1.53-.95,2.56-.95c.35,0,.69.04,1.02.13.33.09.66.22.98.4Z"/>
      <path class="cls-25" d="m403.03,76.69c1.1,0,1.99.31,2.67.93s1.02,1.42,1.02,2.39-.34,1.77-1.02,2.39-1.57.93-2.67.93-1.98-.31-2.66-.93-1.02-1.42-1.02-2.39.34-1.77,1.03-2.39c.68-.62,1.57-.93,2.66-.93Zm0,1.44c-.53,0-.96.17-1.3.52s-.51.79-.51,1.34.17,1,.51,1.36.78.54,1.3.54.96-.18,1.31-.54c.34-.36.51-.81.51-1.36s-.17-.99-.51-1.34-.78-.52-1.31-.52Z"/>
      <path class="cls-25" d="m412.19,81.66h1.46c.31,0,.53.06.66.17.13.11.19.3.19.57s-.06.46-.19.58-.35.18-.65.18h-4.59c-.3,0-.52-.06-.65-.18-.13-.12-.19-.31-.19-.58s.06-.46.19-.57c.12-.11.34-.17.65-.17h1.46v-5.93h-.75c-.31,0-.53-.06-.66-.18-.13-.12-.2-.31-.2-.58s.07-.46.2-.58.35-.18.66-.18h2.03c.13,0,.22.03.29.08s.1.12.1.22v7.16Z"/>
      <path class="cls-25" d="m420.52,81.66h1.46c.31,0,.53.06.66.17.13.11.19.3.19.57s-.06.46-.19.58-.35.18-.65.18h-4.59c-.3,0-.52-.06-.65-.18-.13-.12-.19-.31-.19-.58s.06-.46.19-.57c.12-.11.34-.17.65-.17h1.46v-5.93h-.75c-.31,0-.53-.06-.66-.18-.13-.12-.2-.31-.2-.58s.07-.46.2-.58.35-.18.66-.18h2.03c.13,0,.22.03.29.08s.1.12.1.22v7.16Z"/>
      <path class="cls-25" d="m426.17,80.4c.12.51.34.88.68,1.13.34.25.78.38,1.34.38s1.11-.14,1.66-.41.88-.41.99-.41c.17,0,.3.06.41.19s.16.29.16.48c0,.43-.31.8-.94,1.11-.63.31-1.4.46-2.33.46-1.09,0-1.98-.31-2.67-.93-.68-.62-1.03-1.42-1.03-2.39s.34-1.77,1.03-2.39c.68-.62,1.57-.93,2.67-.93.98,0,1.78.29,2.43.87s.96,1.29.96,2.14c0,.27-.06.45-.19.55s-.39.15-.8.15h-4.37Zm3.65-1.07c-.08-.42-.28-.75-.59-.98s-.73-.35-1.24-.35-.89.11-1.19.33-.51.55-.63,1h3.65Z"/>
      <path class="cls-25" d="m438.35,77.21c.05-.18.14-.31.25-.4s.26-.13.44-.13c.24,0,.42.07.52.22.1.15.16.4.16.77v1.12c0,.28-.06.48-.17.62-.11.13-.29.2-.52.2-.17,0-.31-.04-.42-.12-.11-.08-.23-.23-.36-.44-.18-.31-.42-.54-.71-.69-.29-.15-.65-.22-1.08-.22-.53,0-.96.17-1.3.52-.34.35-.5.79-.5,1.34,0,.57.17,1.03.52,1.37s.82.52,1.4.52c.53,0,1.06-.15,1.59-.45s.85-.45.96-.45c.17,0,.31.06.42.19s.17.29.17.49c0,.43-.32.81-.97,1.15-.64.34-1.41.51-2.29.51-1.09,0-1.98-.31-2.67-.93-.68-.62-1.03-1.42-1.03-2.39s.34-1.75,1.02-2.38c.68-.63,1.53-.95,2.56-.95.35,0,.69.04,1.02.13.33.09.66.22.98.4Z"/>
      <path class="cls-25" d="m444.2,77.23h2.07c.31,0,.53.06.66.17.13.11.2.3.2.57s-.07.46-.2.58-.35.18-.66.18h-2.07v1.75c0,.49.07.83.22,1.01.15.18.41.27.79.27.35,0,.77-.1,1.25-.31s.8-.31.96-.31c.19,0,.34.07.48.22s.2.33.2.54c0,.35-.32.67-.95.96s-1.34.43-2.14.43c-.46,0-.87-.06-1.23-.19-.35-.13-.63-.31-.83-.55-.15-.18-.25-.4-.32-.66-.06-.26-.09-.68-.09-1.28v-1.9h-.64c-.31,0-.53-.06-.65-.18-.13-.12-.19-.31-.19-.58s.06-.46.19-.57c.13-.11.35-.17.66-.17h.64v-1.6c0-.31.06-.54.19-.66s.34-.19.64-.19.51.06.64.19.19.35.19.66v1.6Z"/>
      <path class="cls-25" d="m453.94,81.66h1.46c.31,0,.53.06.66.17s.2.3.2.57-.07.46-.2.58c-.13.12-.35.18-.66.18h-4.58c-.31,0-.53-.06-.66-.18-.13-.12-.2-.31-.2-.58s.06-.45.19-.57.35-.17.67-.17h1.46v-3.32h-.77c-.3,0-.52-.06-.65-.17s-.2-.31-.2-.58.06-.46.19-.57c.13-.11.35-.17.66-.17h2.04c.13,0,.22.03.29.08.07.05.1.12.1.22v4.53Zm-.98-7.91c.33,0,.55.06.66.19s.16.43.16.92-.05.75-.15.86c-.1.11-.33.17-.69.17s-.58-.05-.68-.16-.15-.31-.15-.63c0-.58.05-.95.16-1.11s.33-.24.69-.24Z"/>
      <path class="cls-25" d="m461.31,76.69c1.1,0,1.99.31,2.67.93.68.62,1.02,1.42,1.02,2.39s-.34,1.77-1.02,2.39c-.68.62-1.57.93-2.67.93s-1.98-.31-2.66-.93-1.02-1.42-1.02-2.39.34-1.77,1.03-2.39c.68-.62,1.57-.93,2.66-.93Zm0,1.44c-.53,0-.96.17-1.3.52s-.51.79-.51,1.34.17,1,.51,1.36.78.54,1.3.54.96-.18,1.31-.54c.34-.36.52-.81.52-1.36s-.17-.99-.51-1.34-.78-.52-1.31-.52Z"/>
      <path class="cls-25" d="m472.49,81.65h.09c.25,0,.44.06.57.19.13.13.19.31.19.56,0,.27-.06.46-.19.58-.13.12-.35.18-.65.18h-1.67c-.3,0-.52-.06-.65-.18s-.2-.31-.2-.58c0-.25.06-.44.19-.56s.32-.19.58-.19h.08v-1.98c0-.55-.08-.94-.23-1.17s-.4-.35-.75-.35c-.38,0-.68.14-.92.41-.24.28-.36.64-.36,1.1v1.98h.08c.26,0,.45.06.58.19.13.13.19.31.19.56,0,.27-.07.46-.2.58s-.35.18-.65.18h-1.68c-.3,0-.52-.06-.65-.18s-.2-.31-.2-.58c0-.25.06-.44.19-.56.13-.13.32-.19.58-.19h.08v-3.31h-.12c-.24,0-.43-.06-.56-.19-.13-.13-.19-.31-.19-.55,0-.27.07-.46.2-.58s.35-.18.66-.18h1.15c.13,0,.22.02.29.08s.1.12.1.22v.53c.21-.33.47-.58.8-.74.32-.17.7-.25,1.12-.25.72,0,1.26.22,1.62.66.36.44.53,1.12.53,2.02v2.28Z"/>
      <path class="cls-25" d="m477.97,80.69c.42,0,.77.12,1.03.36s.39.55.39.93-.13.69-.39.93-.6.36-1.03.36-.75-.12-1.02-.36-.39-.55-.39-.93.13-.69.39-.93.6-.36,1.02-.36Z"/>
      <path class="cls-25" d="m486.73,77.04h1.46c.31,0,.53.06.66.17s.2.31.2.57-.07.46-.2.57c-.13.12-.35.18-.66.18h-1.46v3.12h1.35c.31,0,.53.06.66.17s.2.3.2.57-.07.46-.2.58c-.13.12-.35.18-.66.18h-3.73c-.31,0-.53-.06-.66-.18-.13-.12-.2-.31-.2-.58s.06-.45.19-.57.35-.17.67-.17h.72v-3.12h-.72c-.31,0-.53-.06-.66-.18-.13-.12-.2-.31-.2-.57s.06-.46.19-.57.35-.17.67-.17h.72v-.39c0-.89.23-1.53.68-1.9.46-.38,1.23-.56,2.33-.56.57,0,.99.07,1.26.21s.4.35.4.64c0,.19-.06.34-.18.46-.12.11-.28.17-.48.17-.15,0-.36-.02-.63-.06s-.46-.06-.57-.06c-.42,0-.71.09-.88.28-.17.19-.25.52-.25,1v.23Z"/>
      <path class="cls-25" d="m495.57,81.66h1.46c.31,0,.53.06.66.17s.2.3.2.57-.07.46-.2.58c-.13.12-.35.18-.66.18h-4.58c-.31,0-.53-.06-.66-.18-.13-.12-.2-.31-.2-.58s.06-.45.19-.57.35-.17.67-.17h1.46v-3.32h-.77c-.3,0-.52-.06-.65-.17s-.2-.31-.2-.58.06-.46.19-.57c.13-.11.35-.17.66-.17h2.04c.13,0,.22.03.29.08.07.05.1.12.1.22v4.53Zm-.98-7.91c.33,0,.55.06.66.19s.16.43.16.92-.05.75-.15.86c-.1.11-.33.17-.69.17s-.58-.05-.68-.16-.15-.31-.15-.63c0-.58.05-.95.16-1.11s.33-.24.69-.24Z"/>
      <path class="cls-25" d="m505.79,81.65h.09c.25,0,.44.06.57.19.13.13.19.31.19.56,0,.27-.06.46-.19.58-.13.12-.35.18-.65.18h-1.67c-.3,0-.52-.06-.65-.18s-.2-.31-.2-.58c0-.25.06-.44.19-.56s.32-.19.58-.19h.08v-1.98c0-.55-.08-.94-.23-1.17s-.4-.35-.75-.35c-.38,0-.68.14-.92.41-.24.28-.36.64-.36,1.1v1.98h.08c.26,0,.45.06.58.19.13.13.19.31.19.56,0,.27-.07.46-.2.58s-.35.18-.65.18h-1.68c-.3,0-.52-.06-.65-.18s-.2-.31-.2-.58c0-.25.06-.44.19-.56.13-.13.32-.19.58-.19h.08v-3.31h-.12c-.24,0-.43-.06-.56-.19-.13-.13-.19-.31-.19-.55,0-.27.07-.46.2-.58s.35-.18.66-.18h1.15c.13,0,.22.02.29.08s.1.12.1.22v.53c.21-.33.47-.58.8-.74.32-.17.7-.25,1.12-.25.72,0,1.26.22,1.62.66.36.44.53,1.12.53,2.02v2.28Z"/>
      <path class="cls-25" d="m514.16,81.66h.12c.24,0,.43.06.55.19.12.13.18.31.18.55,0,.27-.06.46-.19.58s-.35.18-.65.18h-1.04c-.13,0-.23-.03-.3-.08-.07-.05-.11-.12-.11-.22v-.48c-.22.31-.51.54-.85.7s-.74.24-1.17.24c-.89,0-1.63-.3-2.22-.91-.6-.61-.89-1.37-.89-2.28s.3-1.73.9-2.36c.6-.62,1.37-.94,2.3-.94.32,0,.63.05.94.16s.58.26.84.45v-1.73h-.9c-.31,0-.53-.06-.66-.18s-.2-.31-.2-.58.07-.46.2-.58.35-.18.66-.18h2.11c.15,0,.26.03.32.1s.08.18.08.36v7Zm-3.18-3.36c-.44,0-.81.17-1.1.5s-.44.76-.44,1.27.14.96.43,1.3.66.5,1.1.5.82-.17,1.11-.51c.29-.34.44-.77.44-1.29s-.15-.93-.44-1.27c-.29-.34-.66-.51-1.1-.51Z"/>
      <path class="cls-25" d="m521.36,74.8c.09,0,.17.03.23.1s.09.14.09.24-.11.33-.33.7c-.16.26-.28.48-.37.66-.37.68-.63,1.33-.79,1.95-.16.62-.24,1.25-.24,1.91,0,.59.07,1.17.2,1.73s.33,1.12.6,1.67c.14.29.34.64.58,1.05.24.41.36.67.36.77,0,.09-.03.17-.09.23-.06.06-.13.09-.21.09-.18,0-.38-.08-.61-.23s-.48-.38-.75-.68c-.61-.69-1.08-1.42-1.39-2.2-.31-.78-.47-1.59-.47-2.43,0-.77.13-1.5.39-2.21.26-.71.64-1.39,1.16-2.04.33-.42.65-.74.93-.97.29-.23.53-.34.73-.34Z"/>
      <path class="cls-25" d="m527.94,80.01c.34.22.58.48.71.78s.2.81.2,1.53v1.01c0,.45.04.73.11.85.08.12.22.19.42.24.05.01.12.03.22.04.51.08.77.33.77.76,0,.21-.08.38-.22.51-.15.13-.35.19-.6.19-.32,0-.62-.05-.92-.16s-.54-.25-.73-.43c-.21-.2-.36-.45-.45-.76-.09-.31-.13-.84-.13-1.59v-.79c0-.82-.38-1.29-1.12-1.42-.03,0-.05-.01-.07-.01-.22-.04-.38-.11-.48-.23-.1-.12-.16-.29-.16-.51,0-.2.04-.35.13-.46.09-.11.23-.2.42-.25.09-.03.21-.06.37-.09.6-.11.9-.56.9-1.35v-.81c0-.7.03-1.19.1-1.47.07-.28.18-.53.35-.73.19-.23.44-.41.76-.54s.67-.19,1.05-.19c.24,0,.43.06.58.19s.22.29.22.5c0,.43-.27.69-.82.77-.05,0-.09,0-.11.01-.23.04-.38.12-.47.25s-.13.42-.13.89v1c0,.68-.07,1.19-.2,1.5s-.37.58-.71.79Z"/>
      <path class="cls-25" d="m543.11,76.9c-.11,0-.19-.03-.24-.09s-.08-.17-.1-.34l-.21-2.52v-.08c0-.11.03-.2.08-.25s.13-.08.23-.08h.91c.1,0,.18.03.24.09.05.06.08.14.08.25v.08l-.21,2.52c-.02.17-.05.28-.1.34s-.13.09-.24.09h-.42Zm2.53,0c-.12,0-.2-.03-.25-.09s-.08-.17-.09-.34l-.21-2.52v-.08c0-.11.03-.19.08-.25.05-.06.13-.09.24-.09h.9c.1,0,.18.03.23.08s.08.14.08.25v.08l-.2,2.52c-.02.17-.05.28-.1.34-.05.06-.13.09-.25.09h-.41Z"/>
      <path class="cls-25" d="m553.97,78.34h-.11c-.24,0-.43-.06-.55-.19s-.19-.31-.19-.56c0-.27.06-.46.19-.57.13-.11.34-.17.66-.17h1.28c.12,0,.22.03.28.08s.1.12.1.22v4.53h.11c.24,0,.43.06.56.19.13.13.19.31.19.55,0,.27-.07.47-.2.58s-.35.17-.66.17h-1.14c-.13,0-.23-.03-.29-.08-.07-.05-.11-.13-.11-.23v-.52c-.22.33-.48.57-.8.74-.31.16-.68.25-1.11.25-.73,0-1.27-.22-1.62-.66s-.53-1.12-.53-2.03v-2.28h-.12c-.24,0-.43-.06-.56-.19-.13-.13-.19-.31-.19-.56,0-.27.06-.46.19-.57.13-.11.35-.17.67-.17h1.27c.12,0,.21.03.28.08.06.05.1.12.1.22v3.18c0,.56.08.95.23,1.18.15.23.41.34.76.34.38,0,.68-.14.92-.42.24-.28.36-.65.36-1.1v-1.98Z"/>
      <path class="cls-25" d="m559.44,83.06c-.12.09-.24.16-.36.21s-.25.07-.38.07c-.19,0-.33-.05-.41-.16s-.12-.3-.12-.59v-.91c0-.3.05-.51.15-.64.1-.13.27-.19.52-.19.27,0,.48.13.65.39.1.14.18.25.25.31.22.2.48.35.77.45s.63.15,1,.15c.33,0,.58-.06.78-.19.19-.13.29-.29.29-.5,0-.37-.52-.62-1.57-.77-.23-.03-.41-.05-.54-.08-.79-.11-1.37-.32-1.75-.65s-.58-.75-.58-1.3c0-.64.23-1.14.69-1.49.46-.35,1.12-.53,1.97-.53.29,0,.6.02.91.07.31.05.63.12.95.22.09-.11.2-.2.3-.25s.22-.08.36-.08c.19,0,.33.06.42.17.1.12.15.29.15.52v.84c0,.2-.05.35-.15.45s-.24.16-.42.16-.5-.16-.95-.49c-.45-.33-.9-.49-1.35-.49-.35,0-.62.06-.82.17s-.29.28-.29.48c0,.32.41.53,1.22.64.24.03.42.05.56.07,1.02.15,1.72.38,2.1.67s.57.74.57,1.33c0,.69-.25,1.22-.75,1.6s-1.22.56-2.14.56c-.36,0-.71-.02-1.04-.07s-.66-.12-.97-.21Z"/>
      <path class="cls-25" d="m567.71,80.4c.12.51.34.88.68,1.13.34.25.78.38,1.34.38s1.11-.14,1.66-.41c.55-.28.88-.41.99-.41.17,0,.3.06.41.19s.16.29.16.48c0,.43-.31.8-.94,1.11-.63.31-1.41.46-2.33.46-1.09,0-1.98-.31-2.67-.93-.68-.62-1.03-1.42-1.03-2.39s.34-1.77,1.03-2.39c.68-.62,1.57-.93,2.67-.93.98,0,1.78.29,2.43.87.64.58.96,1.29.96,2.14,0,.27-.06.45-.19.55s-.39.15-.8.15h-4.37Zm3.65-1.07c-.08-.42-.27-.75-.59-.98s-.73-.35-1.24-.35-.89.11-1.19.33c-.3.22-.51.55-.63,1h3.65Z"/>
      <path class="cls-25" d="m577.57,79.45v2.21h1.6c.31,0,.53.06.65.17s.19.3.19.57-.06.46-.19.58-.35.18-.65.18h-3.79c-.31,0-.53-.06-.66-.18s-.2-.31-.2-.58.06-.45.19-.57c.13-.11.35-.17.67-.17h.52v-3.32h-.29c-.31,0-.53-.06-.66-.17-.13-.12-.19-.31-.19-.58s.06-.46.19-.57.34-.17.66-.17h1.44c.12,0,.22.03.28.08.07.05.1.12.1.22v1.01c.49-.53.95-.91,1.38-1.14s.89-.34,1.38-.34c.45,0,.8.1,1.06.3s.39.48.39.82c0,.26-.09.48-.27.65s-.41.26-.7.26c-.2,0-.44-.08-.72-.23-.28-.15-.47-.23-.58-.23-.22,0-.47.1-.76.29-.29.2-.64.5-1.04.91Z"/>
      <path class="cls-25" d="m589.05,81.65h.09c.25,0,.44.06.57.19.13.13.19.31.19.56,0,.27-.06.46-.19.58-.13.12-.35.18-.65.18h-1.67c-.3,0-.52-.06-.65-.18s-.2-.31-.2-.58c0-.25.06-.44.19-.56s.32-.19.58-.19h.08v-1.98c0-.55-.08-.94-.23-1.17s-.4-.35-.75-.35c-.38,0-.68.14-.92.41-.24.28-.36.64-.36,1.1v1.98h.08c.26,0,.45.06.58.19.13.13.19.31.19.56,0,.27-.07.46-.2.58s-.35.18-.65.18h-1.68c-.3,0-.52-.06-.65-.18s-.2-.31-.2-.58c0-.25.06-.44.19-.56.13-.13.32-.19.58-.19h.08v-3.31h-.12c-.24,0-.43-.06-.56-.19-.13-.13-.19-.31-.19-.55,0-.27.07-.46.2-.58s.35-.18.66-.18h1.15c.13,0,.22.02.29.08s.1.12.1.22v.53c.21-.33.47-.58.8-.74.32-.17.7-.25,1.12-.25.72,0,1.26.22,1.62.66.36.44.53,1.12.53,2.02v2.28Z"/>
      <path class="cls-25" d="m597.29,81.66h.11c.24,0,.43.06.56.19s.19.32.19.56c0,.26-.07.45-.2.57-.13.12-.35.17-.66.17h-.64c-.23,0-.39-.04-.5-.13s-.2-.24-.27-.47c-.38.25-.77.44-1.19.57s-.84.2-1.27.2c-.73,0-1.3-.18-1.71-.55-.42-.36-.62-.86-.62-1.5,0-.68.27-1.21.81-1.59s1.29-.57,2.26-.57c.22,0,.45.01.69.03.24.02.52.06.82.11v-.13c0-.41-.1-.72-.29-.94s-.49-.32-.87-.32c-.3,0-.68.11-1.14.33s-.8.33-1.02.33-.38-.06-.51-.19c-.13-.13-.2-.29-.2-.5,0-.37.27-.66.8-.88.54-.22,1.26-.32,2.18-.32s1.65.19,2.07.56c.42.37.62,1.01.62,1.9v2.54Zm-1.64-1.32c-.23-.05-.43-.09-.62-.11s-.37-.04-.53-.04c-.5,0-.89.08-1.17.25s-.42.4-.42.7c0,.26.09.47.27.6s.44.21.78.21c.31,0,.6-.05.88-.14.28-.09.55-.23.81-.42v-1.05Z"/>
      <path class="cls-25" d="m603.29,77.31c.19-.21.41-.36.66-.47.25-.11.52-.16.8-.16.61,0,1.06.18,1.33.55.27.37.41.98.41,1.84v2.59h.09c.21,0,.37.06.48.19s.16.31.16.55c0,.27-.06.47-.17.58s-.3.17-.57.17h-1.15c-.12,0-.22-.03-.29-.08-.07-.05-.1-.12-.1-.22v-3.86c0-.31-.05-.53-.14-.68-.09-.15-.23-.23-.41-.23-.23,0-.4.1-.52.3-.12.2-.19.49-.19.87v2.39h.1c.21,0,.37.06.47.19.11.13.16.31.16.55,0,.27-.06.47-.17.58-.11.12-.3.17-.57.17h-1.15c-.12,0-.22-.03-.29-.08s-.11-.12-.11-.22v-3.86c0-.31-.04-.53-.14-.68-.09-.15-.23-.23-.41-.23-.23,0-.4.1-.53.31-.13.21-.19.49-.19.87v2.39h.1c.21,0,.37.06.48.18s.16.31.16.55c0,.27-.06.47-.17.58-.11.12-.3.17-.57.17h-1.54c-.26,0-.45-.06-.56-.18-.11-.12-.17-.31-.17-.58,0-.24.05-.42.16-.55s.27-.19.48-.19h.09v-3.32h-.09c-.21,0-.37-.06-.48-.19s-.17-.32-.17-.56c0-.26.06-.45.17-.57s.31-.17.57-.17h.92c.18,0,.31.04.38.11s.1.22.1.43c.17-.23.37-.41.6-.53.23-.12.5-.18.79-.18.26,0,.49.05.68.15s.36.26.51.48Z"/>
      <path class="cls-25" d="m609.34,80.4c.12.51.34.88.68,1.13.34.25.78.38,1.34.38s1.11-.14,1.66-.41c.55-.28.88-.41.99-.41.17,0,.3.06.41.19s.16.29.16.48c0,.43-.31.8-.94,1.11-.63.31-1.41.46-2.33.46-1.09,0-1.98-.31-2.67-.93-.68-.62-1.03-1.42-1.03-2.39s.34-1.77,1.03-2.39c.68-.62,1.57-.93,2.67-.93.98,0,1.78.29,2.43.87.64.58.96,1.29.96,2.14,0,.27-.06.45-.19.55s-.39.15-.8.15h-4.37Zm3.65-1.07c-.08-.42-.27-.75-.59-.98s-.73-.35-1.24-.35-.89.11-1.19.33c-.3.22-.51.55-.63,1h3.65Z"/>
      <path class="cls-25" d="m618.04,76.9c-.11,0-.19-.03-.24-.09s-.08-.17-.1-.34l-.21-2.52v-.08c0-.11.03-.2.08-.25s.13-.08.23-.08h.91c.1,0,.18.03.24.09.05.06.08.14.08.25v.08l-.21,2.52c-.02.17-.05.28-.1.34s-.13.09-.24.09h-.42Zm2.53,0c-.12,0-.2-.03-.25-.09s-.08-.17-.09-.34l-.21-2.52v-.08c0-.11.03-.19.08-.25.05-.06.13-.09.24-.09h.9c.1,0,.18.03.23.08s.08.14.08.25v.08l-.2,2.52c-.02.17-.05.28-.1.34-.05.06-.13.09-.25.09h-.41Z"/>
      <path class="cls-25" d="m627.83,77.04c.42,0,.76.12,1.02.35.26.23.38.54.38.92s-.13.7-.39.94-.6.36-1.02.36-.75-.12-1.02-.37-.39-.56-.39-.94.13-.68.39-.92.6-.35,1.02-.35Zm0,3.64c.42,0,.77.12,1.03.35s.39.54.39.92-.13.69-.39.94-.6.36-1.03.36-.75-.12-1.02-.37-.39-.55-.39-.93.13-.68.39-.92.6-.36,1.02-.36Z"/>
      <path class="cls-25" d="m643.02,76.9c-.11,0-.19-.03-.24-.09s-.08-.17-.1-.34l-.21-2.52v-.08c0-.11.03-.2.08-.25s.13-.08.23-.08h.91c.1,0,.18.03.24.09.05.06.08.14.08.25v.08l-.21,2.52c-.02.17-.05.28-.1.34s-.13.09-.24.09h-.42Zm2.53,0c-.12,0-.2-.03-.25-.09s-.08-.17-.09-.34l-.21-2.52v-.08c0-.11.03-.19.08-.25.05-.06.13-.09.24-.09h.9c.1,0,.18.03.23.08s.08.14.08.25v.08l-.2,2.52c-.02.17-.05.28-.1.34-.05.06-.13.09-.25.09h-.41Z"/>
      <path class="cls-25" d="m655.58,81.66h.11c.24,0,.43.06.56.19s.19.32.19.56c0,.26-.07.45-.2.57-.13.12-.35.17-.66.17h-.64c-.23,0-.39-.04-.5-.13s-.2-.24-.27-.47c-.38.25-.77.44-1.19.57s-.84.2-1.27.2c-.73,0-1.3-.18-1.71-.55-.42-.36-.62-.86-.62-1.5,0-.68.27-1.21.81-1.59s1.29-.57,2.26-.57c.22,0,.45.01.69.03.24.02.52.06.82.11v-.13c0-.41-.1-.72-.29-.94s-.49-.32-.87-.32c-.3,0-.68.11-1.14.33s-.8.33-1.02.33-.38-.06-.51-.19c-.13-.13-.2-.29-.2-.5,0-.37.27-.66.8-.88.54-.22,1.26-.32,2.18-.32s1.65.19,2.07.56c.42.37.62,1.01.62,1.9v2.54Zm-1.64-1.32c-.23-.05-.43-.09-.62-.11s-.37-.04-.53-.04c-.5,0-.89.08-1.17.25s-.42.4-.42.7c0,.26.09.47.27.6s.44.21.78.21c.31,0,.6-.05.88-.14.28-.09.55-.23.81-.42v-1.05Z"/>
      <path class="cls-25" d="m664.03,81.66h.12c.24,0,.43.06.55.19.12.13.18.31.18.55,0,.27-.06.46-.19.58s-.35.18-.65.18h-1.04c-.13,0-.23-.03-.3-.08-.07-.05-.11-.12-.11-.22v-.48c-.22.31-.51.54-.85.7s-.74.24-1.17.24c-.89,0-1.63-.3-2.22-.91-.6-.61-.89-1.37-.89-2.28s.3-1.73.9-2.36c.6-.62,1.37-.94,2.3-.94.32,0,.63.05.94.16s.58.26.84.45v-1.73h-.9c-.31,0-.53-.06-.66-.18s-.2-.31-.2-.58.07-.46.2-.58.35-.18.66-.18h2.11c.15,0,.26.03.32.1s.08.18.08.36v7Zm-3.18-3.36c-.44,0-.81.17-1.1.5s-.44.76-.44,1.27.14.96.43,1.3.66.5,1.1.5.82-.17,1.11-.51c.29-.34.44-.77.44-1.29s-.15-.93-.44-1.27c-.29-.34-.66-.51-1.1-.51Z"/>
      <path class="cls-25" d="m669.9,77.31c.19-.21.41-.36.66-.47.25-.11.52-.16.8-.16.61,0,1.06.18,1.33.55.27.37.41.98.41,1.84v2.59h.09c.21,0,.37.06.48.19s.16.31.16.55c0,.27-.06.47-.17.58s-.3.17-.57.17h-1.15c-.12,0-.22-.03-.29-.08-.07-.05-.1-.12-.1-.22v-3.86c0-.31-.05-.53-.14-.68-.09-.15-.23-.23-.41-.23-.23,0-.4.1-.52.3-.12.2-.19.49-.19.87v2.39h.1c.21,0,.37.06.47.19.11.13.16.31.16.55,0,.27-.06.47-.17.58-.11.12-.3.17-.57.17h-1.15c-.12,0-.22-.03-.29-.08s-.11-.12-.11-.22v-3.86c0-.31-.04-.53-.14-.68-.09-.15-.23-.23-.41-.23-.23,0-.4.1-.53.31-.13.21-.19.49-.19.87v2.39h.1c.21,0,.37.06.48.18s.16.31.16.55c0,.27-.06.47-.17.58-.11.12-.3.17-.57.17h-1.54c-.26,0-.45-.06-.56-.18-.11-.12-.17-.31-.17-.58,0-.24.05-.42.16-.55s.27-.19.48-.19h.09v-3.32h-.09c-.21,0-.37-.06-.48-.19s-.17-.32-.17-.56c0-.26.06-.45.17-.57s.31-.17.57-.17h.92c.18,0,.31.04.38.11s.1.22.1.43c.17-.23.37-.41.6-.53.23-.12.5-.18.79-.18.26,0,.49.05.68.15s.36.26.51.48Z"/>
      <path class="cls-25" d="m678.74,81.66h1.46c.31,0,.53.06.66.17s.2.3.2.57-.07.46-.2.58c-.13.12-.35.18-.66.18h-4.58c-.31,0-.53-.06-.66-.18-.13-.12-.2-.31-.2-.58s.06-.45.19-.57.35-.17.67-.17h1.46v-3.32h-.77c-.3,0-.52-.06-.65-.17s-.2-.31-.2-.58.06-.46.19-.57c.13-.11.35-.17.66-.17h2.04c.13,0,.22.03.29.08.07.05.1.12.1.22v4.53Zm-.98-7.91c.33,0,.55.06.66.19s.16.43.16.92-.05.75-.15.86c-.1.11-.33.17-.69.17s-.58-.05-.68-.16-.15-.31-.15-.63c0-.58.05-.95.16-1.11s.33-.24.69-.24Z"/>
      <path class="cls-25" d="m688.96,81.65h.09c.25,0,.44.06.57.19.13.13.19.31.19.56,0,.27-.06.46-.19.58-.13.12-.35.18-.65.18h-1.67c-.3,0-.52-.06-.65-.18s-.2-.31-.2-.58c0-.25.06-.44.19-.56s.32-.19.58-.19h.08v-1.98c0-.55-.08-.94-.23-1.17s-.4-.35-.75-.35c-.38,0-.68.14-.92.41-.24.28-.36.64-.36,1.1v1.98h.08c.26,0,.45.06.58.19.13.13.19.31.19.56,0,.27-.07.46-.2.58s-.35.18-.65.18h-1.68c-.3,0-.52-.06-.65-.18s-.2-.31-.2-.58c0-.25.06-.44.19-.56.13-.13.32-.19.58-.19h.08v-3.31h-.12c-.24,0-.43-.06-.56-.19-.13-.13-.19-.31-.19-.55,0-.27.07-.46.2-.58s.35-.18.66-.18h1.15c.13,0,.22.02.29.08s.1.12.1.22v.53c.21-.33.47-.58.8-.74.32-.17.7-.25,1.12-.25.72,0,1.26.22,1.62.66.36.44.53,1.12.53,2.02v2.28Z"/>
      <path class="cls-25" d="m692.97,76.9c-.11,0-.19-.03-.24-.09s-.08-.17-.1-.34l-.21-2.52v-.08c0-.11.03-.2.08-.25s.13-.08.23-.08h.91c.1,0,.18.03.24.09.05.06.08.14.08.25v.08l-.21,2.52c-.02.17-.05.28-.1.34s-.13.09-.24.09h-.42Zm2.53,0c-.12,0-.2-.03-.25-.09s-.08-.17-.09-.34l-.21-2.52v-.08c0-.11.03-.19.08-.25.05-.06.13-.09.24-.09h.9c.1,0,.18.03.23.08s.08.14.08.25v.08l-.2,2.52c-.02.17-.05.28-.1.34-.05.06-.13.09-.25.09h-.41Z"/>
      <path class="cls-25" d="m702.42,80.79h1.61c.07,0,.13.01.17.04.04.03.06.06.06.11,0,.02,0,.05-.02.09-.01.03-.03.07-.04.11l-2.03,4.01c-.03.07-.08.13-.14.17s-.12.06-.2.06c-.02,0-.04,0-.06-.01s-.05-.01-.07-.02l-.51-.18c-.08-.03-.14-.06-.18-.11-.04-.05-.06-.1-.06-.15,0-.05,0-.09,0-.11,0-.02,0-.05,0-.07l.96-3.55c.04-.15.09-.26.16-.3s.17-.07.32-.07Z"/>
      <path class="cls-25" d="m368.26,93.7c-.11,0-.19-.03-.24-.09-.05-.06-.08-.17-.1-.34l-.21-2.52v-.08c0-.11.03-.2.08-.25s.13-.08.23-.08h.91c.1,0,.18.03.24.09s.08.14.08.25v.08l-.21,2.52c-.02.17-.05.28-.1.34s-.13.09-.24.09h-.42Zm2.53,0c-.12,0-.2-.03-.25-.09s-.08-.17-.09-.34l-.21-2.52v-.08c0-.11.03-.19.08-.25s.13-.09.24-.09h.9c.1,0,.18.03.23.08.05.05.07.14.07.25v.08l-.2,2.52c-.02.17-.05.28-.1.34s-.13.09-.25.09h-.41Z"/>
      <path class="cls-25" d="m376.77,99.32v1.86h.86c.31,0,.53.06.66.18.13.12.2.31.2.58s-.07.45-.2.57c-.13.11-.35.17-.66.17h-2.87c-.31,0-.53-.06-.66-.17s-.19-.3-.19-.57.06-.46.19-.58c.13-.12.35-.18.65-.18h.4v-6.04h-.11c-.24,0-.42-.06-.55-.19s-.19-.31-.19-.56c0-.27.06-.46.19-.57s.35-.17.66-.17h1.04c.13,0,.23.02.29.07.06.05.09.12.09.21v.49c.23-.31.51-.54.84-.7.33-.16.7-.24,1.11-.24.93,0,1.69.3,2.3.9.61.6.91,1.35.91,2.26s-.3,1.73-.89,2.35-1.34.93-2.24.93c-.37,0-.71-.05-1.03-.15s-.59-.25-.83-.45Zm1.56-4.38c-.45,0-.82.17-1.1.5s-.43.76-.43,1.28.14.95.43,1.28.66.5,1.1.5.82-.17,1.11-.5c.29-.33.44-.76.44-1.27s-.14-.95-.43-1.28-.66-.5-1.11-.5Z"/>
      <path class="cls-25" d="m389.15,98.46h.11c.24,0,.43.06.56.19.13.13.19.32.19.56,0,.26-.07.45-.2.57s-.35.17-.66.17h-.64c-.23,0-.39-.04-.5-.13-.11-.09-.2-.24-.27-.47-.38.25-.77.44-1.19.57s-.84.2-1.27.2c-.73,0-1.3-.18-1.71-.55s-.62-.86-.62-1.5c0-.68.27-1.21.81-1.59s1.29-.57,2.26-.57c.22,0,.45.01.69.03.24.02.52.06.82.11v-.13c0-.41-.1-.72-.29-.94-.2-.21-.49-.32-.87-.32-.3,0-.68.11-1.14.33s-.8.33-1.02.33-.38-.06-.52-.19-.2-.29-.2-.5c0-.37.27-.66.8-.88s1.26-.32,2.18-.32,1.65.19,2.07.56.62,1.01.62,1.9v2.54Zm-1.64-1.32c-.23-.05-.43-.09-.62-.11-.19-.02-.37-.04-.53-.04-.5,0-.89.08-1.17.25s-.42.4-.42.7c0,.26.09.47.27.6s.44.21.78.21c.31,0,.61-.05.88-.14s.55-.23.81-.42v-1.05Z"/>
      <path class="cls-25" d="m392.92,99.86c-.12.09-.24.16-.36.21-.12.05-.25.07-.38.07-.19,0-.33-.05-.41-.16-.08-.1-.12-.3-.12-.59v-.91c0-.3.05-.51.15-.64.1-.13.27-.19.51-.19.27,0,.48.13.65.39.1.14.18.25.25.31.22.2.48.35.77.45s.63.15,1,.15c.33,0,.58-.06.78-.19.2-.13.29-.29.29-.5,0-.37-.52-.62-1.57-.77-.23-.03-.41-.05-.54-.08-.79-.11-1.37-.32-1.76-.65-.38-.32-.58-.75-.58-1.3,0-.64.23-1.14.69-1.49.46-.35,1.12-.53,1.97-.53.29,0,.59.02.9.07.31.05.63.12.95.22.1-.11.2-.2.3-.25s.22-.08.36-.08c.18,0,.33.06.42.17.1.12.15.29.15.52v.84c0,.2-.05.35-.15.45-.1.11-.24.16-.42.16s-.5-.16-.95-.49-.9-.49-1.35-.49c-.35,0-.62.06-.82.17s-.29.28-.29.48c0,.32.41.53,1.22.64.23.03.42.05.55.07,1.02.15,1.72.38,2.1.67.38.3.57.74.57,1.33,0,.69-.25,1.22-.75,1.6s-1.22.56-2.14.56c-.36,0-.71-.02-1.04-.07-.33-.05-.66-.12-.97-.21Z"/>
      <path class="cls-25" d="m401.25,99.86c-.12.09-.24.16-.36.21-.12.05-.25.07-.38.07-.19,0-.33-.05-.41-.16-.08-.1-.12-.3-.12-.59v-.91c0-.3.05-.51.15-.64.1-.13.27-.19.51-.19.27,0,.48.13.65.39.1.14.18.25.25.31.22.2.48.35.77.45s.63.15,1,.15c.33,0,.58-.06.78-.19.2-.13.29-.29.29-.5,0-.37-.52-.62-1.57-.77-.23-.03-.41-.05-.54-.08-.79-.11-1.37-.32-1.76-.65-.38-.32-.58-.75-.58-1.3,0-.64.23-1.14.69-1.49.46-.35,1.12-.53,1.97-.53.29,0,.59.02.9.07.31.05.63.12.95.22.1-.11.2-.2.3-.25s.22-.08.36-.08c.18,0,.33.06.42.17.1.12.15.29.15.52v.84c0,.2-.05.35-.15.45-.1.11-.24.16-.42.16s-.5-.16-.95-.49-.9-.49-1.35-.49c-.35,0-.62.06-.82.17s-.29.28-.29.48c0,.32.41.53,1.22.64.23.03.42.05.55.07,1.02.15,1.72.38,2.1.67.38.3.57.74.57,1.33,0,.69-.25,1.22-.75,1.6s-1.22.56-2.14.56c-.36,0-.71-.02-1.04-.07-.33-.05-.66-.12-.97-.21Z"/>
      <path class="cls-25" d="m409.28,95.14l.54,3.36.73-2.6c.08-.27.17-.45.29-.54s.29-.13.52-.13.4.04.52.12.22.26.3.55l.75,2.6.51-3.36h-.12c-.24,0-.43-.06-.55-.19-.13-.13-.19-.31-.19-.56,0-.27.06-.46.19-.57.13-.11.35-.17.67-.17h1.59c.31,0,.53.06.66.17.13.12.2.31.2.57,0,.25-.06.43-.19.56s-.31.19-.55.19h-.12l-.85,4.31c-.04.24-.15.41-.31.52-.16.11-.4.16-.71.16s-.54-.05-.71-.16c-.16-.11-.28-.28-.35-.52l-.79-2.66-.7,2.66c-.06.23-.18.4-.35.51s-.42.17-.72.17-.55-.05-.7-.16c-.16-.11-.26-.28-.31-.52l-.86-4.31h-.12c-.24,0-.42-.06-.54-.19-.12-.13-.19-.31-.19-.56,0-.26.06-.45.19-.57s.35-.17.66-.17h1.61c.31,0,.53.06.66.17s.19.31.19.57c0,.25-.06.43-.19.56-.12.13-.31.19-.54.19h-.12Z"/>
      <path class="cls-25" d="m419.69,93.49c1.1,0,1.99.31,2.67.93.68.62,1.02,1.42,1.02,2.39s-.34,1.77-1.02,2.39c-.68.62-1.57.93-2.67.93s-1.98-.31-2.66-.93c-.68-.62-1.02-1.42-1.02-2.39s.34-1.77,1.03-2.39,1.57-.93,2.66-.93Zm0,1.44c-.53,0-.96.17-1.3.52-.34.35-.51.79-.51,1.34s.17,1,.51,1.36c.34.36.78.54,1.3.54s.96-.18,1.31-.54.51-.81.51-1.36-.17-.99-.51-1.34c-.34-.35-.78-.52-1.31-.52Z"/>
      <path class="cls-25" d="m427.71,96.25v2.21h1.6c.31,0,.53.06.65.17s.19.3.19.57-.06.46-.19.58-.35.18-.65.18h-3.79c-.31,0-.53-.06-.66-.18-.13-.12-.2-.31-.2-.58s.06-.45.19-.57.35-.17.67-.17h.52v-3.32h-.29c-.31,0-.53-.06-.66-.17s-.19-.31-.19-.58.06-.46.19-.57.34-.17.66-.17h1.44c.12,0,.22.03.28.08.07.05.1.12.1.22v1.01c.49-.53.95-.91,1.38-1.14.43-.23.89-.34,1.38-.34.45,0,.8.1,1.06.3.26.2.39.48.39.82,0,.26-.09.48-.27.65s-.41.26-.7.26c-.2,0-.44-.08-.72-.23-.28-.15-.47-.23-.58-.23-.22,0-.47.1-.77.29-.29.2-.64.5-1.04.91Z"/>
      <path class="cls-25" d="m439.22,98.46h.12c.24,0,.43.06.55.19.12.13.18.31.18.55,0,.27-.06.46-.19.58s-.35.18-.65.18h-1.04c-.13,0-.23-.03-.3-.08-.07-.05-.11-.12-.11-.22v-.48c-.22.31-.51.54-.85.7s-.74.24-1.17.24c-.89,0-1.63-.3-2.22-.91-.6-.61-.89-1.37-.89-2.28s.3-1.73.9-2.36,1.37-.94,2.3-.94c.32,0,.63.05.94.16s.58.26.84.45v-1.73h-.9c-.31,0-.53-.06-.66-.18s-.2-.31-.2-.58.07-.46.2-.58.35-.18.66-.18h2.11c.15,0,.26.03.32.1s.08.18.08.36v7Zm-3.18-3.36c-.44,0-.81.17-1.1.5s-.44.76-.44,1.27.14.96.43,1.3.66.5,1.1.5.82-.17,1.11-.51c.29-.34.44-.77.44-1.29s-.15-.93-.44-1.27c-.29-.34-.66-.51-1.1-.51Z"/>
      <path class="cls-25" d="m443.19,93.7c-.11,0-.19-.03-.24-.09s-.08-.17-.1-.34l-.21-2.52v-.08c0-.11.03-.2.08-.25s.13-.08.23-.08h.91c.1,0,.18.03.24.09.05.06.08.14.08.25v.08l-.21,2.52c-.02.17-.05.28-.1.34s-.13.09-.24.09h-.42Zm2.53,0c-.12,0-.2-.03-.25-.09s-.08-.17-.09-.34l-.21-2.52v-.08c0-.11.03-.19.08-.25.05-.06.13-.09.24-.09h.9c.1,0,.18.03.23.08s.08.14.08.25v.08l-.2,2.52c-.02.17-.05.28-.1.34-.05.06-.13.09-.25.09h-.41Z"/>
      <path class="cls-25" d="m452.99,93.84c.42,0,.76.12,1.02.35.26.23.38.54.38.92s-.13.7-.39.94-.6.36-1.02.36-.75-.12-1.02-.37-.39-.56-.39-.94.13-.68.39-.92.6-.35,1.02-.35Zm0,3.64c.42,0,.77.12,1.03.35s.39.54.39.92-.13.69-.39.94-.6.36-1.03.36-.75-.12-1.02-.37-.39-.55-.39-.93.13-.68.39-.92.6-.36,1.02-.36Z"/>
      <path class="cls-25" d="m469.65,96.81c.34.22.58.48.71.78s.2.81.2,1.53v1.01c0,.45.04.73.11.85.08.12.22.19.42.24.05.01.12.03.22.04.51.08.77.33.77.76,0,.21-.08.38-.22.51-.15.13-.35.19-.6.19-.32,0-.62-.05-.92-.16s-.54-.25-.73-.43c-.21-.2-.36-.45-.45-.76-.09-.31-.13-.84-.13-1.59v-.79c0-.82-.38-1.29-1.12-1.42-.03,0-.05-.01-.07-.01-.22-.04-.38-.11-.48-.23-.1-.12-.16-.29-.16-.51,0-.2.04-.35.13-.46.09-.11.23-.2.42-.25.09-.03.21-.06.37-.09.6-.11.9-.56.9-1.35v-.81c0-.7.03-1.19.1-1.47.07-.28.18-.53.35-.73.19-.23.44-.41.76-.54s.67-.19,1.05-.19c.24,0,.43.06.58.19s.22.29.22.5c0,.43-.27.69-.82.77-.05,0-.09,0-.11.01-.23.04-.38.12-.47.25s-.13.42-.13.89v1c0,.68-.07,1.19-.2,1.5s-.37.58-.71.79Z"/>
      <path class="cls-25" d="m484.82,93.7c-.11,0-.19-.03-.24-.09s-.08-.17-.1-.34l-.21-2.52v-.08c0-.11.03-.2.08-.25s.13-.08.23-.08h.91c.1,0,.18.03.24.09.05.06.08.14.08.25v.08l-.21,2.52c-.02.17-.05.28-.1.34s-.13.09-.24.09h-.42Zm2.53,0c-.12,0-.2-.03-.25-.09s-.08-.17-.09-.34l-.21-2.52v-.08c0-.11.03-.19.08-.25.05-.06.13-.09.24-.09h.9c.1,0,.18.03.23.08s.08.14.08.25v.08l-.2,2.52c-.02.17-.05.28-.1.34-.05.06-.13.09-.25.09h-.41Z"/>
      <path class="cls-25" d="m495.38,91.73c.11.02.22.04.34.08s.24.07.37.12c.05-.1.12-.18.2-.23.08-.05.19-.08.32-.08.22,0,.38.06.47.17.09.11.14.31.14.6v.84s.01.04.01.04c0,.23-.06.4-.19.52-.12.12-.31.18-.54.18-.15,0-.27-.03-.35-.09-.08-.06-.18-.19-.27-.38-.12-.23-.28-.41-.48-.53-.21-.12-.44-.18-.69-.18-.37,0-.66.08-.87.24-.21.16-.31.37-.31.65,0,.21.06.38.18.51s.4.28.84.46l1.26.49c.62.25,1.06.54,1.32.86.26.33.39.75.39,1.28,0,.75-.21,1.33-.64,1.73s-1.04.6-1.85.6h-.04l-.09,1.5c-.01.21-.07.35-.18.45-.1.09-.27.14-.49.14-.19,0-.32-.04-.4-.13-.08-.09-.12-.23-.12-.43v-.11l.1-1.59c-.15-.03-.31-.07-.46-.12-.15-.05-.31-.12-.47-.2-.07.09-.14.16-.23.19-.08.04-.21.06-.37.06-.24,0-.41-.06-.5-.18-.09-.12-.14-.34-.14-.66v-.83c0-.3.05-.51.16-.64s.28-.2.51-.2c.35,0,.6.19.74.57.04.1.06.17.08.21.1.21.29.39.58.52s.61.19.98.19c.33,0,.59-.08.78-.23s.28-.37.28-.64c0-.36-.39-.7-1.18-1h-.04s-1.25-.51-1.25-.51c-.49-.19-.86-.45-1.1-.8s-.37-.78-.37-1.28c0-.68.2-1.21.59-1.58.39-.37.98-.58,1.76-.63l.05-.55c.01-.18.07-.32.18-.42s.26-.14.44-.14.34.04.44.13c.1.08.16.2.16.36v.09l-.05.6Z"/>
      <path class="cls-25" d="m505.79,98.45h.09c.25,0,.44.06.57.19.13.13.19.31.19.56,0,.27-.06.46-.19.58-.13.12-.35.18-.65.18h-1.67c-.3,0-.52-.06-.65-.18s-.2-.31-.2-.58c0-.25.06-.44.19-.56s.32-.19.58-.19h.08v-1.98c0-.55-.08-.94-.23-1.17s-.4-.35-.75-.35c-.38,0-.68.14-.92.41-.24.28-.36.64-.36,1.1v1.98h.08c.26,0,.45.06.58.19.13.13.19.31.19.56,0,.27-.07.46-.2.58s-.35.18-.65.18h-1.68c-.3,0-.52-.06-.65-.18s-.2-.31-.2-.58c0-.25.06-.44.19-.56.13-.13.32-.19.58-.19h.08v-3.31h-.12c-.24,0-.43-.06-.56-.19-.13-.13-.19-.31-.19-.55,0-.27.07-.46.2-.58s.35-.18.66-.18h1.15c.13,0,.22.02.29.08s.1.12.1.22v.53c.21-.33.47-.58.8-.74.32-.17.7-.25,1.12-.25.72,0,1.26.22,1.62.66.36.44.53,1.12.53,2.02v2.28Z"/>
      <path class="cls-25" d="m509.43,97.2c.12.51.34.88.68,1.13.34.25.78.38,1.34.38s1.11-.14,1.66-.41c.55-.28.88-.41.99-.41.17,0,.3.06.41.19s.16.29.16.48c0,.43-.31.8-.94,1.11-.63.31-1.41.46-2.33.46-1.09,0-1.98-.31-2.67-.93-.68-.62-1.03-1.42-1.03-2.39s.34-1.77,1.03-2.39c.68-.62,1.57-.93,2.67-.93.98,0,1.78.29,2.43.87.64.58.96,1.29.96,2.14,0,.27-.06.45-.19.55s-.39.15-.8.15h-4.37Zm3.65-1.07c-.08-.42-.27-.75-.59-.98s-.73-.35-1.24-.35-.89.11-1.19.33c-.3.22-.51.55-.63,1h3.65Z"/>
      <path class="cls-25" d="m518.13,93.7c-.11,0-.19-.03-.24-.09s-.08-.17-.1-.34l-.21-2.52v-.08c0-.11.03-.2.08-.25s.13-.08.23-.08h.91c.1,0,.18.03.24.09.05.06.08.14.08.25v.08l-.21,2.52c-.02.17-.05.28-.1.34s-.13.09-.24.09h-.42Zm2.53,0c-.12,0-.2-.03-.25-.09s-.08-.17-.09-.34l-.21-2.52v-.08c0-.11.03-.19.08-.25.05-.06.13-.09.24-.09h.9c.1,0,.18.03.23.08s.08.14.08.25v.08l-.2,2.52c-.02.17-.05.28-.1.34-.05.06-.13.09-.25.09h-.41Z"/>
      <path class="cls-25" d="m527.92,93.84c.42,0,.76.12,1.02.35.26.23.38.54.38.92s-.13.7-.39.94-.6.36-1.02.36-.75-.12-1.02-.37-.39-.56-.39-.94.13-.68.39-.92.6-.35,1.02-.35Zm0,3.64c.42,0,.77.12,1.03.35s.39.54.39.92-.13.69-.39.94-.6.36-1.03.36-.75-.12-1.02-.37-.39-.55-.39-.93.13-.68.39-.92.6-.36,1.02-.36Z"/>
      <path class="cls-25" d="m543.11,93.7c-.11,0-.19-.03-.24-.09s-.08-.17-.1-.34l-.21-2.52v-.08c0-.11.03-.2.08-.25s.13-.08.23-.08h.91c.1,0,.18.03.24.09.05.06.08.14.08.25v.08l-.21,2.52c-.02.17-.05.28-.1.34s-.13.09-.24.09h-.42Zm2.53,0c-.12,0-.2-.03-.25-.09s-.08-.17-.09-.34l-.21-2.52v-.08c0-.11.03-.19.08-.25.05-.06.13-.09.24-.09h.9c.1,0,.18.03.23.08s.08.14.08.25v.08l-.2,2.52c-.02.17-.05.28-.1.34-.05.06-.13.09-.25.09h-.41Z"/>
      <path class="cls-25" d="m550.82,95.14l.54,3.36.72-2.6c.08-.27.17-.45.29-.54s.29-.13.52-.13.4.04.52.12c.12.08.22.26.3.55l.75,2.6.51-3.36h-.12c-.24,0-.43-.06-.56-.19-.13-.13-.19-.31-.19-.56,0-.27.06-.46.19-.57s.35-.17.67-.17h1.59c.31,0,.53.06.66.17s.2.31.2.57c0,.25-.06.43-.19.56-.13.13-.31.19-.55.19h-.12l-.85,4.31c-.04.24-.15.41-.31.52-.16.11-.4.16-.71.16s-.54-.05-.71-.16c-.16-.11-.28-.28-.35-.52l-.79-2.66-.71,2.66c-.06.23-.18.4-.35.51-.18.11-.42.17-.72.17s-.55-.05-.7-.16-.26-.28-.3-.52l-.86-4.31h-.12c-.24,0-.42-.06-.55-.19s-.19-.31-.19-.56c0-.26.06-.45.19-.57.13-.12.34-.17.66-.17h1.61c.31,0,.53.06.66.17.13.12.19.31.19.57,0,.25-.06.43-.19.56s-.31.19-.54.19h-.12Z"/>
      <path class="cls-25" d="m560.92,96.25v2.21h1.6c.31,0,.53.06.65.17s.19.3.19.57-.06.46-.19.58-.35.18-.65.18h-3.79c-.31,0-.53-.06-.66-.18s-.2-.31-.2-.58.06-.45.19-.57c.13-.11.35-.17.67-.17h.52v-3.32h-.29c-.31,0-.53-.06-.66-.17-.13-.12-.19-.31-.19-.58s.06-.46.19-.57.34-.17.66-.17h1.44c.12,0,.22.03.28.08.07.05.1.12.1.22v1.01c.49-.53.95-.91,1.38-1.14s.89-.34,1.38-.34c.45,0,.8.1,1.06.3s.39.48.39.82c0,.26-.09.48-.27.65s-.41.26-.7.26c-.2,0-.44-.08-.72-.23-.28-.15-.47-.23-.58-.23-.22,0-.47.1-.76.29-.29.2-.64.5-1.04.91Z"/>
      <path class="cls-25" d="m569.55,93.49c1.1,0,1.99.31,2.67.93.68.62,1.02,1.42,1.02,2.39s-.34,1.77-1.02,2.39c-.68.62-1.57.93-2.67.93s-1.98-.31-2.66-.93-1.02-1.42-1.02-2.39.34-1.77,1.03-2.39c.68-.62,1.57-.93,2.66-.93Zm0,1.44c-.53,0-.96.17-1.3.52s-.51.79-.51,1.34.17,1,.51,1.36.78.54,1.3.54.96-.18,1.31-.54c.34-.36.52-.81.52-1.36s-.17-.99-.51-1.34-.78-.52-1.31-.52Z"/>
      <path class="cls-25" d="m580.72,98.45h.09c.25,0,.44.06.57.19.13.13.19.31.19.56,0,.27-.06.46-.19.58-.13.12-.35.18-.65.18h-1.67c-.3,0-.52-.06-.65-.18s-.2-.31-.2-.58c0-.25.06-.44.19-.56s.32-.19.58-.19h.08v-1.98c0-.55-.08-.94-.23-1.17s-.4-.35-.75-.35c-.38,0-.68.14-.92.41-.24.28-.36.64-.36,1.1v1.98h.08c.26,0,.45.06.58.19.13.13.19.31.19.56,0,.27-.07.46-.2.58s-.35.18-.65.18h-1.68c-.3,0-.52-.06-.65-.18s-.2-.31-.2-.58c0-.25.06-.44.19-.56.13-.13.32-.19.58-.19h.08v-3.31h-.12c-.24,0-.43-.06-.56-.19-.13-.13-.19-.31-.19-.55,0-.27.07-.46.2-.58s.35-.18.66-.18h1.15c.13,0,.22.02.29.08s.1.12.1.22v.53c.21-.33.47-.58.8-.74.32-.17.7-.25,1.12-.25.72,0,1.26.22,1.62.66.36.44.53,1.12.53,2.02v2.28Z"/>
      <path class="cls-25" d="m587.59,94.28v-.36c0-.09.03-.16.1-.21s.16-.07.29-.07h1.1c.31,0,.53.06.66.17.13.12.19.31.19.57,0,.25-.06.43-.19.56s-.31.19-.54.19h-.12v4.71c0,1-.27,1.72-.81,2.17s-1.4.68-2.59.68c-.74,0-1.28-.07-1.62-.22-.35-.15-.52-.38-.52-.69,0-.22.07-.4.21-.53s.33-.21.56-.21c.06,0,.25.02.58.06.33.04.63.06.92.06.65,0,1.09-.12,1.34-.37s.37-.69.37-1.33v-.31c-.32.19-.64.32-.95.41-.31.09-.64.13-.98.13-.91,0-1.65-.29-2.23-.86-.58-.57-.86-1.31-.86-2.2s.3-1.69.9-2.28c.6-.6,1.37-.9,2.31-.9.41,0,.76.06,1.07.19.31.13.57.33.8.6Zm-1.68.64c-.44,0-.81.16-1.1.49s-.44.74-.44,1.24.15.9.44,1.22.66.48,1.1.48.82-.16,1.11-.48c.29-.32.44-.73.44-1.22s-.15-.91-.44-1.24c-.29-.32-.66-.49-1.11-.49Z"/>
      <path class="cls-25" d="m591.71,96.03h5.62c.11,0,.19.03.25.08s.08.13.08.24v.85c0,.1-.03.18-.1.26s-.15.12-.23.12h-5.62c-.09,0-.16-.03-.21-.1s-.08-.16-.08-.27v-.85c0-.1.03-.17.08-.23.05-.06.12-.09.21-.09Z"/>
      <path class="cls-25" d="m601.57,99.32v1.86h.86c.31,0,.53.06.66.18.13.12.2.31.2.58s-.07.45-.2.57-.35.17-.66.17h-2.87c-.31,0-.53-.06-.66-.17-.13-.11-.19-.3-.19-.57s.06-.46.19-.58c.13-.12.35-.18.65-.18h.4v-6.04h-.11c-.24,0-.42-.06-.55-.19-.13-.13-.19-.31-.19-.56,0-.27.06-.46.19-.57.13-.11.35-.17.66-.17h1.04c.13,0,.23.02.29.07s.09.12.09.21v.49c.23-.31.51-.54.84-.7.33-.16.7-.24,1.11-.24.93,0,1.69.3,2.3.9.61.6.91,1.35.91,2.26s-.3,1.73-.89,2.35c-.59.62-1.34.93-2.24.93-.37,0-.71-.05-1.03-.15s-.59-.25-.83-.45Zm1.57-4.38c-.45,0-.82.17-1.1.5s-.43.76-.43,1.28.14.95.43,1.28.66.5,1.1.5.82-.17,1.11-.5.44-.76.44-1.27-.15-.95-.43-1.28c-.29-.33-.66-.5-1.11-.5Z"/>
      <path class="cls-25" d="m613.95,98.46h.11c.24,0,.43.06.56.19s.19.32.19.56c0,.26-.07.45-.2.57-.13.12-.35.17-.66.17h-.64c-.23,0-.39-.04-.5-.13s-.2-.24-.27-.47c-.38.25-.77.44-1.19.57s-.84.2-1.27.2c-.73,0-1.3-.18-1.71-.55-.42-.36-.62-.86-.62-1.5,0-.68.27-1.21.81-1.59s1.29-.57,2.26-.57c.22,0,.45.01.69.03.24.02.52.06.82.11v-.13c0-.41-.1-.72-.29-.94s-.49-.32-.87-.32c-.3,0-.68.11-1.14.33s-.8.33-1.02.33-.38-.06-.51-.19c-.13-.13-.2-.29-.2-.5,0-.37.27-.66.8-.88.54-.22,1.26-.32,2.18-.32s1.65.19,2.07.56c.42.37.62,1.01.62,1.9v2.54Zm-1.64-1.32c-.23-.05-.43-.09-.62-.11s-.37-.04-.53-.04c-.5,0-.89.08-1.17.25s-.42.4-.42.7c0,.26.09.47.27.6s.44.21.78.21c.31,0,.6-.05.88-.14.28-.09.55-.23.81-.42v-1.05Z"/>
      <path class="cls-25" d="m617.72,99.86c-.12.09-.24.16-.36.21s-.25.07-.38.07c-.19,0-.33-.05-.41-.16s-.12-.3-.12-.59v-.91c0-.3.05-.51.15-.64.1-.13.27-.19.52-.19.27,0,.48.13.65.39.1.14.18.25.25.31.22.2.48.35.77.45s.63.15,1,.15c.33,0,.58-.06.78-.19.19-.13.29-.29.29-.5,0-.37-.52-.62-1.57-.77-.23-.03-.41-.05-.54-.08-.79-.11-1.37-.32-1.75-.65s-.58-.75-.58-1.3c0-.64.23-1.14.69-1.49.46-.35,1.12-.53,1.97-.53.29,0,.6.02.91.07.31.05.63.12.95.22.09-.11.2-.2.3-.25s.22-.08.36-.08c.19,0,.33.06.42.17.1.12.15.29.15.52v.84c0,.2-.05.35-.15.45s-.24.16-.42.16-.5-.16-.95-.49c-.45-.33-.9-.49-1.35-.49-.35,0-.62.06-.82.17s-.29.28-.29.48c0,.32.41.53,1.22.64.24.03.42.05.56.07,1.02.15,1.72.38,2.1.67s.57.74.57,1.33c0,.69-.25,1.22-.75,1.6s-1.22.56-2.14.56c-.36,0-.71-.02-1.04-.07s-.66-.12-.97-.21Z"/>
      <path class="cls-25" d="m626.05,99.86c-.12.09-.24.16-.36.21s-.25.07-.38.07c-.19,0-.33-.05-.41-.16s-.12-.3-.12-.59v-.91c0-.3.05-.51.15-.64.1-.13.27-.19.52-.19.27,0,.48.13.65.39.1.14.18.25.25.31.22.2.48.35.77.45s.63.15,1,.15c.33,0,.58-.06.78-.19.19-.13.29-.29.29-.5,0-.37-.52-.62-1.57-.77-.23-.03-.41-.05-.54-.08-.79-.11-1.37-.32-1.75-.65s-.58-.75-.58-1.3c0-.64.23-1.14.69-1.49.46-.35,1.12-.53,1.97-.53.29,0,.6.02.91.07.31.05.63.12.95.22.09-.11.2-.2.3-.25s.22-.08.36-.08c.19,0,.33.06.42.17.1.12.15.29.15.52v.84c0,.2-.05.35-.15.45s-.24.16-.42.16-.5-.16-.95-.49c-.45-.33-.9-.49-1.35-.49-.35,0-.62.06-.82.17s-.29.28-.29.48c0,.32.41.53,1.22.64.24.03.42.05.56.07,1.02.15,1.72.38,2.1.67s.57.74.57,1.33c0,.69-.25,1.22-.75,1.6s-1.22.56-2.14.56c-.36,0-.71-.02-1.04-.07s-.66-.12-.97-.21Z"/>
      <path class="cls-25" d="m634.08,95.14l.54,3.36.72-2.6c.08-.27.17-.45.29-.54s.29-.13.52-.13.4.04.52.12c.12.08.22.26.3.55l.75,2.6.51-3.36h-.12c-.24,0-.43-.06-.56-.19-.13-.13-.19-.31-.19-.56,0-.27.06-.46.19-.57s.35-.17.67-.17h1.59c.31,0,.53.06.66.17s.2.31.2.57c0,.25-.06.43-.19.56-.13.13-.31.19-.55.19h-.12l-.85,4.31c-.04.24-.15.41-.31.52-.16.11-.4.16-.71.16s-.54-.05-.71-.16c-.16-.11-.28-.28-.35-.52l-.79-2.66-.71,2.66c-.06.23-.18.4-.35.51-.18.11-.42.17-.72.17s-.55-.05-.7-.16-.26-.28-.3-.52l-.86-4.31h-.12c-.24,0-.42-.06-.55-.19s-.19-.31-.19-.56c0-.26.06-.45.19-.57.13-.12.34-.17.66-.17h1.61c.31,0,.53.06.66.17.13.12.19.31.19.57,0,.25-.06.43-.19.56s-.31.19-.54.19h-.12Z"/>
      <path class="cls-25" d="m644.49,93.49c1.1,0,1.99.31,2.67.93.68.62,1.02,1.42,1.02,2.39s-.34,1.77-1.02,2.39c-.68.62-1.57.93-2.67.93s-1.98-.31-2.66-.93-1.02-1.42-1.02-2.39.34-1.77,1.03-2.39c.68-.62,1.57-.93,2.66-.93Zm0,1.44c-.53,0-.96.17-1.3.52s-.51.79-.51,1.34.17,1,.51,1.36.78.54,1.3.54.96-.18,1.31-.54c.34-.36.52-.81.52-1.36s-.17-.99-.51-1.34-.78-.52-1.31-.52Z"/>
      <path class="cls-25" d="m652.51,96.25v2.21h1.6c.31,0,.53.06.65.17s.19.3.19.57-.06.46-.19.58-.35.18-.65.18h-3.79c-.31,0-.53-.06-.66-.18s-.2-.31-.2-.58.06-.45.19-.57c.13-.11.35-.17.67-.17h.52v-3.32h-.29c-.31,0-.53-.06-.66-.17-.13-.12-.19-.31-.19-.58s.06-.46.19-.57.34-.17.66-.17h1.44c.12,0,.22.03.28.08.07.05.1.12.1.22v1.01c.49-.53.95-.91,1.38-1.14s.89-.34,1.38-.34c.45,0,.8.1,1.06.3s.39.48.39.82c0,.26-.09.48-.27.65s-.41.26-.7.26c-.2,0-.44-.08-.72-.23-.28-.15-.47-.23-.58-.23-.22,0-.47.1-.76.29-.29.2-.64.5-1.04.91Z"/>
      <path class="cls-25" d="m664.03,98.46h.12c.24,0,.43.06.55.19.12.13.18.31.18.55,0,.27-.06.46-.19.58s-.35.18-.65.18h-1.04c-.13,0-.23-.03-.3-.08-.07-.05-.11-.12-.11-.22v-.48c-.22.31-.51.54-.85.7s-.74.24-1.17.24c-.89,0-1.63-.3-2.22-.91-.6-.61-.89-1.37-.89-2.28s.3-1.73.9-2.36c.6-.62,1.37-.94,2.3-.94.32,0,.63.05.94.16s.58.26.84.45v-1.73h-.9c-.31,0-.53-.06-.66-.18s-.2-.31-.2-.58.07-.46.2-.58.35-.18.66-.18h2.11c.15,0,.26.03.32.1s.08.18.08.36v7Zm-3.18-3.36c-.44,0-.81.17-1.1.5s-.44.76-.44,1.27.14.96.43,1.3.66.5,1.1.5.82-.17,1.11-.51c.29-.34.44-.77.44-1.29s-.15-.93-.44-1.27c-.29-.34-.66-.51-1.1-.51Z"/>
      <path class="cls-25" d="m668,93.7c-.11,0-.19-.03-.24-.09s-.08-.17-.1-.34l-.21-2.52v-.08c0-.11.03-.2.08-.25s.13-.08.23-.08h.91c.1,0,.18.03.24.09.05.06.08.14.08.25v.08l-.21,2.52c-.02.17-.05.28-.1.34s-.13.09-.24.09h-.42Zm2.53,0c-.12,0-.2-.03-.25-.09s-.08-.17-.09-.34l-.21-2.52v-.08c0-.11.03-.19.08-.25.05-.06.13-.09.24-.09h.9c.1,0,.18.03.23.08s.08.14.08.25v.08l-.2,2.52c-.02.17-.05.28-.1.34-.05.06-.13.09-.25.09h-.41Z"/>
      <path class="cls-25" d="m686.1,96.81c-.33-.21-.56-.47-.7-.79s-.2-.82-.2-1.5v-1.44c0-.21-.05-.38-.16-.49s-.29-.19-.54-.22c-.33-.05-.55-.12-.66-.23s-.16-.28-.16-.5.07-.41.21-.53.33-.19.59-.19c.33,0,.65.05.93.15s.53.24.72.42c.22.21.38.46.47.76.09.3.14.84.14,1.6v.81c0,.79.31,1.25.93,1.37.15.02.26.05.35.07.19.05.33.13.42.25.09.12.14.27.14.46s-.05.36-.14.48-.24.2-.43.25c-.07.01-.17.03-.3.05-.64.12-.96.59-.96,1.39v.79c0,.72-.03,1.22-.1,1.5-.07.28-.18.52-.35.71-.18.21-.43.39-.76.52-.33.13-.68.2-1.04.2-.25,0-.45-.06-.59-.19-.14-.13-.21-.31-.21-.54,0-.21.05-.38.16-.49s.33-.19.66-.25c.28-.04.46-.12.56-.23.1-.11.15-.28.15-.53v-1.37c0-.72.07-1.23.2-1.53s.37-.56.71-.78Z"/>
      <path class="cls-25" d="m702.76,96.81c-.33-.21-.56-.47-.7-.79s-.2-.82-.2-1.5v-1.44c0-.21-.05-.38-.16-.49s-.29-.19-.54-.22c-.33-.05-.55-.12-.66-.23s-.16-.28-.16-.5.07-.41.21-.53.33-.19.59-.19c.33,0,.65.05.93.15s.53.24.72.42c.22.21.38.46.47.76.09.3.14.84.14,1.6v.81c0,.79.31,1.25.93,1.37.15.02.26.05.35.07.19.05.33.13.42.25.09.12.14.27.14.46s-.05.36-.14.48-.24.2-.43.25c-.07.01-.17.03-.3.05-.64.12-.96.59-.96,1.39v.79c0,.72-.03,1.22-.1,1.5-.07.28-.18.52-.35.71-.18.21-.43.39-.76.52-.33.13-.68.2-1.04.2-.25,0-.45-.06-.59-.19-.14-.13-.21-.31-.21-.54,0-.21.05-.38.16-.49s.33-.19.66-.25c.28-.04.46-.12.56-.23.1-.11.15-.28.15-.53v-1.37c0-.72.07-1.23.2-1.53s.37-.56.71-.78Z"/>
      <path class="cls-25" d="m709.03,91.93c0-.09.03-.17.09-.24.06-.07.14-.1.22-.1.2,0,.45.11.74.34.29.23.6.55.94.97.51.64.89,1.32,1.15,2.03.26.71.39,1.45.39,2.22,0,.84-.16,1.65-.47,2.43s-.77,1.51-1.39,2.2c-.26.29-.51.52-.75.67s-.45.24-.62.24c-.08,0-.15-.03-.21-.09-.06-.06-.09-.14-.09-.23,0-.1.11-.33.33-.7.16-.27.29-.49.38-.66.37-.68.63-1.33.79-1.95.16-.62.24-1.26.24-1.92,0-.6-.07-1.18-.2-1.74s-.33-1.12-.6-1.67c-.15-.3-.34-.65-.59-1.06-.24-.4-.36-.66-.36-.76Z"/>
    </g>
  </g>
  <path class="cls-9" d="m550.06,350.79h132.25c7.29,0,13.21,5.43,13.21,12.13h0c0,6.71-5.91,12.14-13.21,12.14h-132.25c-7.29,0-13.21-5.43-13.21-12.13h0c0-6.71,5.91-12.14,13.21-12.14Z"/>
  <text class="cls-21" transform="translate(573.17 367.23)"><tspan x="0" y="0">Admin logged in</tspan></text>
  <path class="cls-16" d="m558.52,362.4c1.4-.84,2.23-2.37,2.19-4,.31-2.15-1.18-4.14-3.33-4.45-2.15-.31-4.14,1.18-4.45,3.33-.05.37-.05.75,0,1.12-.05,1.7.87,3.29,2.37,4.1-2.17,2.89-6.39.19-6.4,9h16.48c0-7.31-4.65-5.98-6.86-9.1Z"/>
  <polygon class="cls-24" points="557.14 371.9 555.74 370.24 556.56 364.35 555.79 363.29 556.58 362.61 557.26 362.61 558.1 363.25 557.43 364.31 558.68 370.21 557.14 371.9"/>
</svg>